<?xml version="1.0" encoding="UTF-8"?><svg id="Layer_1" xmlns="http://www.w3.org/2000/svg" viewBox="0 0 1416.18 1070.76"><defs><style>.cls-1{fill:#e3e5e6;}.cls-1,.cls-2,.cls-3,.cls-4,.cls-5,.cls-6,.cls-7,.cls-8,.cls-9,.cls-10,.cls-11,.cls-12,.cls-13,.cls-14,.cls-15,.cls-16,.cls-17,.cls-18,.cls-19,.cls-20,.cls-21,.cls-22,.cls-23,.cls-24,.cls-25,.cls-26,.cls-27,.cls-28,.cls-29,.cls-30,.cls-31,.cls-32,.cls-33,.cls-34,.cls-35,.cls-36,.cls-37{stroke-width:0px;}.cls-2{fill:#fdfefe;}.cls-3{fill:#e0e1e1;}.cls-4{fill:#fcfefd;}.cls-5{fill:#dde0e1;}.cls-6{fill:#dee0e3;}.cls-7{fill:#dcdfe3;}.cls-8{fill:#dee1e6;}.cls-9{fill:#dee0e2;}.cls-10{fill:#e1e3e4;}.cls-11{fill:#dedfe1;}.cls-12{fill:#dfe0e2;}.cls-13{fill:#dedfe0;}.cls-14{fill:#dee0e1;}.cls-15{fill:#d9dbdc;}.cls-16{fill:#d9dce1;}.cls-17{fill:#dde0e3;}.cls-18{fill:#fafcfd;}.cls-19{fill:#dddee0;}.cls-20{fill:#d8dbde;}.cls-21{fill:#dddfe3;}.cls-22{fill:#fefefe;}.cls-23{fill:#dde0e2;}.cls-24{fill:#fcfdfe;}.cls-25{fill:#dcdee6;}.cls-26{fill:#dddfe2;}.cls-27{fill:#eef1f0;}.cls-28{fill:#fdfefd;}.cls-29{fill:#dddfe1;}.cls-30{fill:#dbdee2;}.cls-31{fill:#fefdfc;}.cls-32{fill:#dee0e5;}.cls-33{fill:#d7dbde;}.cls-34{fill:#fcfdfd;}.cls-35{fill:#eceef0;}.cls-36{fill:#dcdee4;}.cls-37{fill:#dcdedf;}</style></defs><path class="cls-26" d="M1078.77,0c6.37,1.54,12.63,3.23,18.84,5.57,12.73,4.79,21.96,13.26,29.5,24.12,3.22,4.63,5.77,9.63,8.21,14.66,1.81,3.73,4.82,4.82,8.58,5.83,6.46,1.74,12.67,3.8,18.3,8.28,8.43,6.71,11.4,15.67,13.36,25.29.81,4,2.48,5.31,6.27,5.27,12-.11,23.99,0,35.99-.08,2.38-.01,4.67.22,6.82,1.15,1.43.62,3.7.76,3.55,2.87-.12,1.64-2.14,1.97-3.48,2.39-1.54.49-3.25.59-4.89.59-110.31.02-220.62-.02-330.93.14-4.55,0-7.64-2.71-12.58-3.95,3.7-1.31,6.25-3.22,9.38-3.13,12.48.37,24.93-2.08,37.37-.9,16.8,1.58,33.6.28,50.38.89,5.03.18,7.04-.98,7.58-6.78,1.83-19.85,11.2-35.03,29.98-43.48,1.71-.77,2.84-2.25,3.82-3.83,6.1-9.76,13.19-18.61,22.75-25.3,6.38-4.46,13.41-7.18,21-8.59,1.12-.21,2.36.08,3.18-1.03h17Z"/><path class="cls-18" d="M210.9,1070.76c.86-1.62,3.1-.39,3.99-1.95,1.57-.87,3.27-.46,4.91-.46,64.82,0,129.64,0,194.45-.02.97,0,1.95,0,2.92,0,34.51-.02,69.03.12,103.54-.08.58-.15,1.18-.27,1.78-.37,1.23-.18,2.37.04,3.35.85-.66.68-1.32,1.35-1.99,2.03H210.9Z"/><path class="cls-25" d="M228.92,274.93c1.33-7.37,5.54-13.46,9.24-19.68,6.99-11.75,16.43-21.04,28.46-27.85,9.9-5.61,20.53-8.06,31.62-9.5,12.28-1.6,24.58-.91,36.87-.92,257.45-.05,514.9-.03,772.35-.05,18,0,34.85,4.31,50.04,14,9.04,5.76,16.41,13.49,21.88,22.75,1.18,2,4.15,3.19,3.42,6.25-3.47,3.79-3.35,9.06.37,12.73.32.31.2-.41.43-.57,2.21-1.52,4.26-1.81,4.57,1.52.22,2.38,3.7,5.51-1.39,7.33-.73.26.6,4.05,2.39,5.36,2.22,1.63,3.54,3.79,3.32,6.33-.9,10.32,2.08,20.44,1.29,30.74-.36,4.66-1.29,9.11-4.05,13.02-.52.27-1.05.43-1.63.51-.62.07-1.23.06-1.85.02-3.5-.41-7-.35-10.5-.35-148.81,0-297.62,0-446.43-.01-3.49,0-7.01.35-10.43-.69-2.37-1.5-5.02-1.53-7.71-1.53-13.99.02-27.99.06-41.98-.04-2.15-.02-5.84.79-5.87-1.83-.03-2.59,3.63-1.99,5.84-2,24.99-.1,50.07-1.36,74.95.35,47.56,3.27,95.1.92,142.64,1.49,47.64.58,95.29.13,142.94.13s95.29.02,142.94-.06c2.83,0,5.83,1.04,8.49-.77-.31-.43-.66-.75-1.14-.96-2.01-.47-4.02-.29-6.01-.29-140.99,0-281.97-.02-422.96,0-31.09-.4-62.2.91-93.29-.75,1.6.05,3.33-.62,5.12.57-.76,1.83-2.36,2.04-3.9,2.21-2.32.26-4.66.15-6.99.16-130.78,0-261.57,0-392.35,0-5.63,0-11.24-.13-17.03-1.56,1.34,1.04,3.02-.2,3.98,1.11.35.58-.04.96-.42,1.22-1.93,1.32-4.16.88-6.3,1.03-1.94.13-4.07-.43-5.55,1.44-.84,1.19-1.63,2.45-3.3,2.58-1.3-.35-1.83-1.07-1.11-2.37,1.67-4.33-.17-8.82.72-13.19-.9,4.39,1.08,8.98-1.01,13.28-1.12-.32-1.76-1.23-1.71-2.2.39-8.81-4.25-17.51-2.05-26.05,2.44-9.49.47-19.22,3-28.56.36-1.32.99-2.87.14-4.34Z"/><path class="cls-29" d="M229.9,335.93c.02.82.2,1.57,1.01,2,1.54,2.35.42,4.88.42,7.31.02,68.64-.74,137.3.32,205.93.63,40.48.79,80.95.4,121.41-.18,18.47,1.43,36.92.09,55.39-.38,5.29.87,5.9,5.78,3.76,11-4.79,21.98-9.61,33.92-11.69,8.05-1.4,15.95-.4,23.79,1.32,3.57.78,7.65,2.67,6.98,6.53-.74,4.26-5.5,3.49-8.81,3.12-8.33-.94-16.6-1.06-24.9.09-17.03,2.36-31.27,10.39-43.17,22.31-18,18.05-28.47,40.27-34.62,64.84-9.13,36.45-7.6,72.69,1.8,108.7,4.17,15.99,10.56,31.22,19.27,45.39,4.97,8.08,11.09,13.37,21.51,12.12,6.08-.73,12.32-.18,18.48-.12,3.45.03,5.12-1.42,5.64-4.86,1.22-8.09.57-16.27,1.5-24.41,1.76-15.37,1.54-30.89,3.03-46.3.45-4.68-.62-8.79-3.46-12.66-7.22-9.84-15.84-18.44-23.85-27.58-8.12-9.27-16.42-18.39-23.95-28.17-1.33-1.72-2.69-3.44-3.11-5.63-.36-1.89-.15-3.71,1.56-4.94,1.79-1.28,3.55-.69,5.05.52,3.64,2.94,6.79,6.37,9.77,9.98,11.78,14.25,24.41,27.77,36.51,41.74.42.49.92.98,2.32.91,1.86-6.36,1.57-13.2,2.13-19.84,1.42-16.75,3.11-33.47,4.52-50.22.95-11.29,2.25-22.53,3.64-33.76.33-2.66.67-5.31,1.91-7.72,1.07-2.07,2.7-3.55,5.2-2.94,2.31.57,3.68,2.28,3.96,4.63.24,1.99-.14,3.99-.42,5.97-3.03,20.94-5.82,41.92-7.47,63-1.56,19.89-3.6,39.76-3.43,59.79.16,18.81-2.15,37.52-3.52,56.27-.48,6.63-1.01,13.27-1.39,19.91-.22,3.86,1.44,5.47,5.28,5.32,3.83-.15,7.67-.2,11.49.01,4.24.23,5.44-1.74,5.4-5.69-.14-12.66.02-25.33-.07-37.99-.09-13.65.56-27.31-.94-40.93-.37-3.37-1.08-6.55-2.5-9.6-8.02-17.13-9.86-34.88-6.92-53.6,1.6-10.2,4.39-19.13,11.43-26.96,4.74-5.27,7.99-11.79,12.88-17.13,19.38-21.15,43.51-29.48,71.6-26.37,21.04,2.33,39.22,11.26,54.14,26.41,12.58,12.77,19.66,28.18,22.18,45.92,1.53,10.75.94,21.24-1.75,31.68-.5,1.93-.89,3.92-2.3,5.45-.13.08-.35.26-.39.22-2.04-1.77-4.21-3.32-6.83-4.14-.39-4.56,1.28-8.85,1.73-13.31,3.13-30.41-9.07-53.74-33.85-70.25-19.61-13.06-41.89-15.44-64.29-9.22-16.48,4.58-30.24,14.53-40.7,28.38-17.15,22.71-20.49,47.65-8.7,73.33,6.49,14.15,6.63,28.2,5.5,42.84-.22,2.83-.4,5.64-.4,8.47,0,36.13,0,72.26,0,108.39,0,2.99.11,6-.4,8.97.85,5.94.35,11.94,1,17.88.03.26-1.58,1.26.07.82,4.95-1.34,9.95-.69,14.91-.7,63.96-.04,127.92.04,191.89-.06,4.25,0,8.68.85,12.29-2.62,1.01-.97,2.54-.42,3.78.19.33,0,.66.03,1,.07,1.08,2.35.66,4.1-2,4.95h0c-1.73.9-3.59.45-5.39.45-31.74.03-63.47.01-95.21.05-1.79,0-3.66-.45-5.39.46-.68,0-1.36,0-2.03,0-1.9-.93-3.93-.45-5.89-.46-62.35-.03-124.7-.02-187.05-.04-2.84,0-6.27.88-7.02-3.48.03-1.29.67-1.98,1.98-2,3.82-1.68,7.42.62,11.19.59,17.89-.14,35.78-.08,53.66-.04,2.54,0,4.92-.39,7.17-1.53,2.95.33,4.07-.81,4.05-3.93-.11-20.64-.18-41.28.03-61.92.05-5-3.01-4.14-5.89-4.14-61.26-.02-122.54.6-183.79-.29-31.43-.46-62.86-.34-94.28-.56-3.16-.02-5.74-3.13-9.01-1.19.97-4.23,4.97-4.38,7.84-4.77,13.62-1.88,22.57-9.04,27.59-21.81,5.13-13.06,13.35-23.95,24.85-32.15,6.19-4.41,13.33-6.78,20.69-8.09,9.03-1.61,18.26-2.1,27.06.95,10.09,3.5,20.09,7.32,28.63,14.12,8.81,7.01,17.49,14.17,24.18,23.31,4.59,6.27,8.73,12.88,12.98,19.4,1.17,1.79,2.41,3.1,4.72,3.09,10.46-.03,20.92-.01,32.23-.01-4.36-6.65-8.18-12.76-11.56-19.16-9.4-17.76-15.03-36.8-19.22-56.28-3.43-15.94-4.83-32.21-3.94-48.47,1.36-24.86,4.45-49.42,14.02-72.83,4.06-9.92,11.33-17.18,17.54-25.37,4.39-5.79,9.42-11.1,13.64-16.99,3.73-5.2,2.22-17.69-6.01-21.32-16.97-7.49-33.73-15.48-50.62-23.15-20.23-9.18-36.02-23.29-46.54-42.82-7.86-14.61-13.41-30.3-19.29-45.78-7.52-19.79-14.68-39.73-19.23-60.46-3.73-16.99-5.85-34.17-6.89-51.59-.72-12.11.45-23.85,3.42-35.32,3.96-15.29,11.54-27.13,27.64-29.97,10.83-1.91,21.04,1.65,30.81,6,19.6,8.73,33.65,23.24,45.06,41.3,13.09,20.72,24.32,42.47,36.88,63.46,1.6,2.67,3.42,5.17,5.68,7.36,1.44-1.31,2.02-2.76,1.57-4.23-1.51-4.92-.75-9.94-.76-14.89-.07-62.32-.04-124.64-.05-186.96,0-12.59-.47-25.2.14-37.76.57-11.7,1.63-23.46,5.86-34.61.94-.27,2.28-.76,1.79.99-2.25,7.91-1.07,16.07-2.01,24.03-.59,4.96-3.09,10.04-1.61,14.85,2.15,6.98.81,14.24,2.81,21.12Z"/><path class="cls-14" d="M1189.76,335.93c4.12-11.19,3.48-22.54,1.2-33.96-.43-2.13.05-4.27.19-6.41.2-3.06.88-5.99-3.26-8.21-2.71-1.46-3.61-5.97-2.79-9.68,1.99-.8,1.32,2.44,3.5,1.46-1.1-2.25.58-5.86-2.69-6.91-2.81-.9-1.53,2.61-2.72,3.89-.69-1.74-.47-3.53-2.99-4.55-2.93-1.19-2.1-5.33-1.09-7.03,1.69-2.83.34-4.41-1.2-6.49,2.71-1.12,3.27,1.66,4.9,1.9,5.85,6.1,6.34,14.43,8.85,21.86,3.77,11.16,3.16,22.86,3.14,34.46-.05,23.15-.62,46.33.13,69.46,1.7,52.94.28,105.87.84,158.8q.04,3.38,2.87,7.17c4.52-7.54,8.86-14.92,13.33-22.22,13.68-22.36,27.31-44.87,43.65-65.32,13.35-16.72,31.26-27.86,53.28-30.03,7.79-.77,14.73,2.6,20.71,7.97,10.52,9.44,13.49,21.97,15.17,35.14,2.25,17.6.74,35.01-1.87,52.48-3.2,21.5-8.54,42.32-15.57,62.91-4.02,11.76-7.93,23.66-13.01,34.87-7.28,16.06-13.13,33.01-23.95,47.3-6.19,8.16-14.31,14.36-23.15,19.16-15.91,8.64-32.57,15.79-48.98,23.45-5.92,2.76-12.2,4.98-17.61,8.9-5.45,3.94-7.5,11.58-4.33,17.59,3.36,6.35,9.06,10.9,12.96,16.87,3.96,6.06,10.36,10.21,13.83,16.65,5.3,9.83,8.32,20.55,11.43,31.2,4.78,16.35,5.73,33.17,6.5,50.11.48,10.5-.5,20.78-1.29,31.14-.67.58-.3,2.28-1.72,1.91-.87-.22-.78-1.28-.58-2.08.03-.11.26-.18.4-.26-.06.02-.11.04-.52.17-.18,3.68,1.85,7.45.46,11.26h0c-1.38,2.17.29,4.78-1.01,6.97-1.44,1.07-.83,2.64-.99,4.02-3.19-.89-3.55-3.98-2.94-5.96,2.7-8.71-1.08-17.16-.49-25.73-.35-14.79,1.17-29.64-1.04-44.36-3.08-20.51-7.85-40.68-18.73-58.56-14.65-24.07-36.09-38.96-63.99-44.36-7.1-1.37-14.18-1.71-21.34-1.61-1.66.02-3.34.06-4.97-.31-2.45-.54-4.44-1.64-4.46-4.54-.02-3.19,2.37-3.34,4.73-3.96,20.8-5.39,39.82-.45,57.97,9.78,2.33,1.31,4.69,2.54,7.32,3.04-.55-4.36-.45-8.73-.45-13.08,0-30.22,0-60.45,0-90.67,0-1.99-.25-4.02.44-5.93.34-.94.64-2.53,2.35-1.34.2,35.32.03,70.64.09,96.74.78-42.22-.65-93.65-.91-145.08.04-77.67,0-155.34.02-233,0-2.32-.21-4.66.41-6.95Z"/><path class="cls-22" d="M921.83,987.8c-1.73.36-2.95-1.05-4.24-1.63-1.37,1.69-.15,3.67-2.39,5.86.06-3.54-2.13-6.22,1.49-8.62,2.03-1.35-.1-2.6-.53-3.74-1.09-2.84-2.24.1-3.39.12-4.9-.95-8.08,1.7-11.11,5.05-6.63,7.31-11.44,15.94-17.45,23.69-.51.66-.88,1.42-1.41,2.05-1.18,1.4-2.38,3.13-4.5,2.34-1.83-.69-1.82-2.66-1.87-4.3-.36-11.3-1.55-22.56-1.16-33.89.09-2.69.58-7.31-2.51-7.11-3.78.24-2.17,4.72-2.01,7.48,1.15,18.97.85,37.87-1.82,56.74-1.15,8.11-3.32,15.95-4.87,23.95-.84,4.37-3.53,7.04-8.04,7.73-.99.15-1.96.38-2.95.49-10.09,1.16-11.73-.28-11.73-10.4,0-32.28,0-64.57,0-96.85,0-1.33-.02-2.66.06-3.99.31-5.46.83-5.96,6.61-6.31,23.49,3.97,43.2-2.66,58.76-20.95,1.19-1.4,2.26-2.85,3.11-4.48,2.86-3.45,4.75-7.41,6.07-11.67.58-1.49.7-3.11,1.26-4.6.3-1.13.71-2.22,1.07-3.33,1.96-6.05,4.13-7.89,10.41-7.96,12.64-.14,25.29-.14,37.94-.07,6.87.04,8.31,1.64,7.39,8.43-1.09,8.07-1.56,16.23-3,24.24-2.1,11.72.52,22.85,3.75,33.89,1.96,6.7,4.23,13.32,6.45,19.94,1.78,5.32.81,6.45-4.93,6.46-14.31.01-28.61-.45-42.92.29-2.35.12-4.63.23-6.83,1.15-1.53.64-3.13,1.28-4.69,0Z"/><path class="cls-6" d="M921.83,987.8c18.27-5.82,37.05-1.97,55.58-2.79,3.28-.14,4.1.06,2.87-3.54-4.19-12.19-8.53-24.34-10.82-37.11-1.49-8.34-.15-16.47.87-24.67.87-7.04,1.66-14.09,2.48-21.14.32-2.77-.85-3.82-3.69-3.8-13.81.1-27.61-.01-41.42.08-4.24.03-7.23,1.89-8.03,6.5-.27,1.56-.55,3.29-1.87,4.5-1.42-1.72-.1-3.55-.69-5.95.69,3.77-1.55,6.7-.3,9.92-1.21,4.11-2.03,8.43-6,11.05-1.31-1.13-1.72-3.17-.88-4,3.15-3.13.27-5.21-.86-7.64.24-2.17-.21-4.67,2.65-5.58,2.73-.32,1.68-2.56,1.59-3.82-.43-6.16,1.19-12.22.79-18.37-.1-1.49.32-3.25,2.14-3.41,1.46-.13,1.51,1.5,1.78,2.57,1.89,7.29,6.41,11.6,14.03,11.61,9.57,0,19.29,1.65,28.71-1.52.94-.32,2.1-.54,2.96-.17,6.38,2.71,13.18,1.64,19.59,1.31,11.04-.56,22.21,2.42,33.13-1.05,1.27-.4,2.73-.57,3.95-.11,6.27,2.37,12.81,1.49,19.25,1.76,2.64.11,5.38.12,7.23,2.55-1.12,3.09-3.86,2.06-5.94,2.08-11.95.14-23.91.05-36.5.08,17.74,15.25,35.91,28.99,54.2,44.44-3.93-15.98-6.2-31.21-12.04-45.54,4.18.1,8.06-3.9,12.46-.93-.66,2.99-.17,5.84.58,8.8,4.06,16.11,8.25,32.17,13.12,48.07,2.7,8.82,7.64,15.68,15.61,21.23.61-6.53-.33-12.52-1.09-18.49-2.02-15.98-3.81-31.98-4.96-48.05-.34-4.8-1.97-8.69-6.56-10.84.3-3.47,1.92-5.79,5.47-6.7,1.9-.49-.25-1.44.04-2.18-.45-10.46-1.79-20.83-2.48-31.25-.22-3.32-.41-6.62-.33-9.94.04-1.86.46-3.6,1.66-5.11,2.69-3.37,5.43-3.04,7.06.93.97,2.36.86,4.87.99,7.36.41,7.8,1.01,15.63,2.94,23.17,3.37,13.13,11.84,22.74,22.41,30.8,4.84,3.69,10.34,6.69,13.73,12.04-.19,2.95-1.04,5.58-3.56,7.41-3.3-.45-5.76-2.49-8.25-4.42-6.19-4.79-12.38-9.58-18.6-14.33-1.42-1.08-2.73-2.45-4.96-2.8-1.12,4.26.03,8.41.53,12.36,2.61,20.47,3.91,41.08,6.64,61.53.93,6.98,2.7,8.52,9.7,8.62,6.66.09,13.32-.09,19.98.06,4.07.09,5.67-1.61,5.63-5.64-.1-10.32-.06-20.65-.01-30.97.01-2.31-.32-4.69.96-6.82,3.13.07,3.8-1.93,3.93-4.53.09-1.82-.01-3.69.46-5.46.3-1.14.46-2.85,2.49-1.89,1.63,6.14,2.01,12.48,1.93,18.73-.14,10.5.96,20.93,1.1,31.4.05,3.56,1.52,5.12,5.1,5.12,15.48,0,30.96,0,46.44,0,3.82,0,6.35-1.85,7.77-5.2,6.22-14.7,12.47-29.35,16.95-44.74,4.77-16.36,8.04-32.94,9.9-49.84.17-1.51-.04-3.52,2.37-3.74-.15,4.94-.06,9.84,1.69,14.56.98,2.66.04,5.26-.78,7.69-1.19,3.53-.68,6.67,1.11,9.76,1.21,6.5-2.4,11.92-4.17,17.69-5.28,17.23-11,34.32-17.8,51.01-1.45,3.55-.58,4.4,2.94,4.33,6.99-.13,13.99-.14,20.99,0,3.02.06,4.96-.99,6.39-3.71,6.59-12.56,14.52-24.33,25.1-33.74,8.93-7.94,18.38-15.44,29.84-19.95,6.85-2.69,13.71-4.93,21.02-5.48,7.02-.52,13.93.83,20.51,2.97,8.6,2.79,17.76,4.48,24.89,10.79,11.26,9.95,18.44,21.97,19.3,37.31.16,2.8,1.27,5.51.93,8.38-.31,2.69,1.13,3.43,3.59,3.39,6-.09,11.99-.03,17.99-.02,1.33,0,2.68-.09,4,.06,2.15.24,5.03.5,4.88,3.1-.13,2.29-2.41,3.81-5.09,3.84-6.8.08-13.63-.29-20.37,1.02-4.99,1.37-9.98,1.63-14.97,0h-401.96c-7.67,1.52-15.33,1.62-22.99-.01-7.82.39-15.6-.38-23.36-1.15-2.09-.21-6.29,1.05-5.6-3.85Z"/><path class="cls-12" d="M848.8,947.78c-4.77-.82-6.13,1.1-6.1,5.94.21,34.64.2,69.28-.01,103.92-.03,4.15,1.52,5.25,5.03,5.08,5.46-.28,12.14,1.32,14.54-5.52,2.23-6.35,3.39-13.13,4.45-19.82,2.95-18.57,3.71-37.29,3.06-56.07-.12-3.46-.81-6.91-.87-10.37-.05-2.82.58-6.74,3.56-6.59,2.43.12,4.48,3.45,4.35,6.9-.47,12.47.5,24.91,1,37.36.05,1.24-.69,3.07.88,3.55,1.75.53,2.36-1.34,3.18-2.54,6.14-9.02,12.06-18.2,19.19-26.49,1.49-1.73,3.59-2.92,5.33-4.45,2.63-2.32,4.7-1.83,6.37,1.12,2.34,9.36.71,18.66-.44,27.96-.79,6.35-1.68,12.68-2.53,19.02-2.65,10.24-5.36,20.47-7.9,30.74-.66,2.67.19,4.2,3.55,4.34,13.48.53,13.52.66,18.21-12.18.91-2.5,2-4.86,3.23-7.22,3.67-7.06,9.82-8.66,16.85-7.56,6.57,1.03,10.86,5.3,13.07,11.52,1.28,3.6,2.35,7.3,1.94,11.2-.34,3.32,1.05,4.5,4.3,4.22,1.95-.17,4.06-.21,5.89.36,1.77.54,3.99,1.46,3.74,3.98-.23,2.28-1.85,3.42-4.11,3.57-.66.05-1.33.02-2,.02-72.91-.02-145.81-.05-218.72-.07.86-2.64,3.07-1.33,4.58-1.34,16.82-.11,33.64-.07,50.47-.07,52.13,0,104.26,0,156.39,0,1.77,0,3.55-.17,4.98.08,1-.04.19-1.13.41-.51-76.68.95-153.36.02-230.04.45,3.19-.02,6.38-.09,9.57,0,1.01.03,2.51-.56,2.58,1.37-26.66.03-53.32.07-79.98.06-4.03,0-7.83-1.04-11.35-3.31,5.03-3.09,10.3-3.78,15.9-3.72,16.96.17,33.93.06,51.03.06-2.63-9.82-5.3-19.68-7.88-29.55-.67-2.55-1.24-5.16-1.52-7.78-.58-5.36,4.24-8.95,10.14-7.36,9.17,2.47,17.33,6.83,22.98,14.71,2.51,3.51,5.93,6.27,7.9,10.2,1.35,2.7,2.92,1.17,4.28-.19,3.75-3.75,7.76-6.43,13.55-6.16,10.61.5,18.12,9.62,14.27,20.11-1.77,4.82.22,5.08,3.87,5.04,6.5-.07,13,0,19.5-.03,5.77-.02,6.39-.66,4.18-5.91-5.24-12.42-8.93-25.37-13.27-38.09-5.44-15.97-10.58-32.05-15.56-48.17-1.78-5.74-3.59-11.5-3.17-17.8.3-4.47,2.51-4.67,5.51-3.62,11.52,4.03,20.13,12.07,27.4,21.41,5.99,7.69,11.08,16.07,16.61,24.12.7,1.02,1.02,2.95,2.66,2.48,1.63-.47.88-2.29.92-3.52.53-15.97-.58-31.92-.97-47.87,1.39-.46,1.67.56,2.04,1.54.04-1.53-2.71-3.33.02-4.4,2.05-.81,2.67,1.33,3.2,2.86.49,1.42,1.37,2.65,1.91,4.03.19-.64.07.31.07.18.06-2.44,1.17-3.84,3.67-3.53,1.59.2,3.79-.32,4.11,2.3Z"/><path class="cls-14" d="M324.42,24.09c16.97-.62,30.35,6.56,41.17,19.16,1.12,1.31,2.99,2.91,1.46,4.71-1.66,1.96-3.5-.02-4.79-.93-3.37-2.38-6.31-5.37-9.72-7.69-15.92-10.81-32.4-11.59-49.72-3.12-6.56,3.21-12.16,7.21-16.97,12.63-5.03,5.67-7.91,12.41-8.74,19.64-3.3,28.93,10.91,49.41,39.74,55.55,13.65,2.9,25.01-2.16,35.85-9.55,1.99-1.36,4.35-3.91,6.52-1.74,1.81,1.82-1.21,4.1-1.6,6.33-.17.96-1.3,1.94-2.23,2.55-13.95,9.04-28.74,12.95-45.32,8.28-20.32-5.73-33.88-18.65-38.76-38.88-8.05-33.37,12.64-61.22,44.15-66.87,2.9-.52,5.98-.07,8.98-.07Z"/><path class="cls-11" d="M177.31,146.95c-15.99,0-31.99.05-47.98-.05-3.13-.02-6.25-.67-9.38-.96-1.37-.13-2.22-.86-2.36-2.14-.17-1.53,1.21-1.97,2.26-2.22,3.21-.76,6.4-1.65,9.77-1.62,8.33.06,16.66-.09,24.99.07,3.48.07,5.39-1.06,6.69-4.5,2.07-5.5,5.31-10.44,10.54-13.49,10.07-5.87,23.43-5.29,29.47,7.63,4.41,9.43,10.44,10.96,19.44,10.46,11.29-.63,22.65-.15,33.98-.15,1.17,0,2.41-.21,3.48.12,2.2.67,4.61,1.43,4.62,4.38.01,3.16-2.83,3.3-4.67,3.3-9.3-.03-18.62.91-27.9-.5-1.63-.25-3.31-.28-4.97-.28-15.99-.02-31.99-.01-47.98-.01v-.04Z"/><path class="cls-22" d="M1375.74,992.81c4.99,0,9.98,0,14.97,0-4.39,2.79-11.53,2.8-14.97,0Z"/><path class="cls-6" d="M1237.76,900.81c.35-4-1.87-7.8-.81-11.92,1.03-.31.89,3.74,2.76.93-.53,3.69-.42,7.49-1.95,11Z"/><path class="cls-22" d="M1323.46,996.53h-9.68c0-.17,0-.33,0-.5h9.74c-.02.17-.03.33-.05.5Z"/><path class="cls-6" d="M1236.75,907.78c.39-2.32-.93-4.89,1.01-6.98-.39,2.32.88,4.88-1.01,6.98Z"/><path class="cls-22" d="M1343.86,995.97h3.95c-1.34,1.41-2.66.67-3.95,0Z"/><path class="cls-22" d="M1279.9,996.4c1.33-.69,2.58-.86,3.91-.23-1.35,1.21-2.71.24-3.91.23Z"/><path class="cls-5" d="M848.8,947.78c-6.18-2.3-6.42-2.2-7.28,2.95-2.97-2.01-3.38-5.73-5.11-9.13-1.88,2.81,1.68,4.21.02,6.23-1.54-.37-1.24-2.5-2.64-3.05-5.11-3.61-10.36-7.05-15.3-10.87-10.73-8.3-16.41-19.75-19.58-32.62-.75-3.03-1.49-5.85-5.09-6.58-.29-.23-.44-.52-.46-.87-8.28-.37-16.57.46-24.83-.42-2.57-1.41-3.4-3.32-1.76-5.97,5.11-2.28,10.51-1,15.77-1.13,13.08-.31,10.92,1.28,16.07-10.34,3.11-7,6.03-14.08,9.01-21.14,1.35-3.21.66-4.73-2.99-4.54-1.49.08-3,0-4.5,0-71.96,0-143.93-.01-215.89.02-6.7,0-13.32-.7-19.85-2.03-15.98-3.24-25.95-16.44-27.23-32.62-2.1-26.7,19.79-43.55,42.61-43.49,84.12.21,168.25,0,252.38.19,10.98.03,21.97,1.09,31.23,8.42,13.2,10.45,17.86,24.08,15.07,40.29-1.7,9.88-2.89,9.09,6.85,13.87,14.59,7.15,26.93,16.58,32.97,32.46,1.43,3.77,2.31,7.64,2.93,11.6,1.02,6.55,1.72,7.21,8.34,7.22,29.15.04,58.31-.06,87.46.05,13.82.05,27.64-.55,41.46.37,6.65,1.29,13.32.91,20,.26,1.22-.14,2.39-.09,3.32.86.74.3,2.76.33,2.06.83-2.77,1.98-5.74,3.68-8.1,6.2-5.64,2.43-11.28,2.44-16.92,0-1.86-.21-3.81-.04-5.28.99-2.38,1.66-4.51.88-6.76,0h0c-2.33-1.95-5.14-1.84-7.96-2.06-5.99-.47-12.2,1.55-17.97-1.79-1.11-.64-3.18-.55-4.38.04-6.2,3.06-12.51,2.01-18.83.91-2.9-.5-5.57.66-8.35.82-5.81.34-11.61-1.63-17.46.01-1.34.37-2.82-.03-4.2-1-2.49-1.75-5.69-1.64-8.02-.33-2.25,1.26-4.34,1.36-6.61,1.37-5.65.03-11.4-.65-16.93.19-5.82.88-10.23-2.28-15-3.98-4.59-1.64-4.68-6.75-4.59-11.3-2.16,9.71-.57,19.85-3.36,30.09-1.84-2.04-1.07-3.59-1.3-4.98-1.42-1.87-.55-3.91-.18-5.77,5.01-25.45-13.21-53.41-42.34-58.33-26.68-4.51-49.5,7.6-59.95,32.7-7.31,17.56-3.58,34.95,9.27,49.84,10.31,11.95,23.77,18.17,38.92,18.82,18.54.79,33.73-7.23,44.98-22.37,2.27-3.05,2.99-7.48,7.28-8.91,1.06.66,1.63,1.87,3.15,2.09,2.73.38,1.42,2.81.58,2.99-3.95.84-2.45,3.72-2.68,5.98-1.62,6.54-6.95,10.37-11.56,14.23-13.41,11.24-29.28,15.26-46.61,13.65-1.3-.12-2.56-.62-3.85-.94Z"/><path class="cls-7" d="M766.82,887.84c-.35,2.06.39,3.69,2,4.96-1.73.93-3.6.46-5.39.46-22.19.04-44.37.03-65.55.02-1.67.25-.67,1.19-1.06.65-.12-.16.06-.17.33-.33.93-.56,1.93-.27,2.89-.27,30.13-.02,60.26-.02,90.38,0,1.14,0,2.34-.25,3.4.47v.92c-84.64.03-169.29.06-253.93.09-.97,1.42-3.84-1.03-4.03,1.98.05.81.21,1.57.99,2.02.69,1.32.88,2.89,2.01,3.98h0c.22.25.39.54.43.86.27,1.99,2.69,4.59.39,5.8-2.48,1.31-2.35-2.35-3.63-3.56-1.77-1.67-3.33-3.67-5.89-4.25-.36-.29-.63-.65-.8-1.08-.35-.68.59-1.64-.05-1.94-.37-.18-1.16.81-1.68,1.36-17.22,15.38-34.47,30.72-53.01,44.51-1.59.5-2.55,1.64-3.14,3.15-1.13,1.73-2.7,2.73-4.77,2.95-2.88-1.41-6.46.12-9.07-1.83-3.13-2.34.16-5.64-.77-8.43-.87-2.61-.84-5.54-2.9-7.7-.74-6.45,3.03-11.78,4.54-17.66,1.24-4.84,2.3-9.7,3.32-14.57.57-2.73-.46-3.92-3.27-4.25-12.09-1.39-12.93-.74-11.1,11.07,2.79,18.02-3.02,33.03-15.5,45.81-2.09,2.14-4.42,4.04-7.21,5.25-1.22.31-2.58.14-3.17-.84-1.12-1.86-2.18-2.01-3.87-.79-.83.6-1.84,1.88-3.01.73-1.07-1.06-.8-2.43-.1-3.67.41-.73,1-1.32,1.58-1.91,2.19-2.06,4.8-3.55,7.24-5.27,10.25-7.2,18.51-25.1,13.9-37.86-1.84-5.08-2.34-5.36-6.46-1.61-.74.67-1.46,1.35-2.24,1.98-5.64,4.55-11.64,8.78-13.88,16.24-2.51,1.24-5.01-.17-7.52-.04-3.91.79-7.7,2.27-11.66,2.67-11.39,1.17-16.4,8.59-19.5,18.58-3.1,9.98-9.11,17.58-19.53,21.05-12.86,4.28-29.11-3.7-33.4-16.58-.26-.8-.46-1.61-.45-2.45.04-2.61-.67-5.83,2.48-6.94,3.03-1.07,4.38,1.82,5.64,3.86,2.39,3.87,5.26,7.3,8.78,10.14,6.13,4.95,13.25,4.59,18.95-.82,3.18-3.02,5.57-6.52,7.42-10.53,2.95-6.38,4.69-13.16,7.01-19.75.83-2.34,1.32-4.83,1.28-7.35-.03-1.91-.51-3.75-2.6-4.39-2.01-.62-3.61.41-4.78,1.94-1.84,2.41-2.87,5.24-3.71,8.13-1.68,5.78-3.9,11.32-6.95,16.52-2.23,3.81-3.45,3.85-5.96.42-2.75-3.76-5.38-7.6-7.76-11.59-1.13-1.9-3.22-4.05-1.5-6.33,1.45-1.93,3.97-1.15,6.11-.82.49.08.99.15,1.47.29,2.72.77,4.42-.08,5.33-2.88.93-2.85,2.37-5.51,3.93-8.07,4.1-6.74,10.28-9.29,17.94-7.52,3.16.73,5.36,2.57,6.47,5.64.85,2.36,1.4,4.79,1.79,7.26.76,4.8,1.9,5.55,6.66,4.04,17.98-5.72,32.26-16.15,41.77-32.76,2.31-4.04,5.01-7.83,6.38-12.37.41-1.35.97-2.95,2.95-2.86,1.14-1.52,3.58-.28,4.36-2.78,1.21,2.28.51,4.11.75,5.84,1.8,2.46.42,4.82-.33,7.12-.93,2.81-.08,4.13,2.86,4.19,1.83.04,3.66.04,5.5.04,100.78,0,201.56,0,302.34.04,3.24,0,6.72-.87,9.58,1.62Z"/><path class="cls-9" d="M454.86,932.78c2.45,1.69,4.39,8.26,3.29,11.12-1.48,3.82-.41,5.47,3.44,4.32,2.58-.77,3.42,1.61,5.31,1.58,1.21,2.58-1.07,3.58-2.37,4.86-7.11,7.06-13.57,14.64-18.6,23.35-2.76,4.78-2.48,5.33,2.75,5.34,23.8.02,47.6-.05,71.4.07,4.44.02,7.05-1.65,8.88-5.66,8.64-18.97,10.6-38.64,6.62-59-.9-4.61-2.44-8.98-5-12.97-.97-1.51-2.22-3.06-.75-4.98,6.1-.73,6.96,4.43,9.27,8.52,1.65-2.48-.87-4.48-.25-6.54,4.62,7.9,6.21,16.65,6.99,25.57,1.6,18.26-2.18,35.59-9.37,52.3-.52,1.21-1.9,3.39-.19,3.81,2.55.63,5.72,1.41,8-.95,1.11-1.14,2.16-2.74,2.4-4.26,1.4-8.88,6.31-15.86,11.69-22.65,5.32-6.71,11.82-11.82,19.39-15.92,13.61-7.37,31.32-3.16,40.89,6.33,8.03,7.97,12.55,17.27,12.21,28.73-.05,1.83-.07,3.66.02,5.49.14,2.85.81,4.26,4.54,3.81,5.54-.66,11.24-.67,16.84.62,1.72.39,3.01,1.24,4.44,2.03,2.49,1.37,2.18,2.53-.17,3.74-1.82.94-3.67,1.4-5.74,1.36-3.99-.07-7.98.01-11.98.03-1.61,1.22-3.49,1-5.29.9-18.44-1.05-36.89-.3-55.34-.4-4.6-.03-9.13,1.36-13.82,1.11-48.99-2.64-98.01-.52-147-1.13-1.28,0-2.35-.46-2.39-1.87-.03-1.07.16-1.08,4.71-1.1-1.52-.34-3.2.36-4.95-.79,1.51-2.69,4.22-1.85,6.11-2.38-1.89-.56-4.39,1.82-6.19-.93.71-1.79,2.39-1.72,3.8-1.72,12.76,0,18.89-8.48,23.36-18.62,3.56-8.06,6.25-16.48,8.78-24.93.39-1.3.76-2.56,2.01-3.29,3.54-.37.35-2.19.68-3.26.07-.97.16-1.92,1.55-1.66Z"/><path class="cls-9" d="M406.78,923.84c2.69.32,5.37.64,8.06.96,1.89,1.87,1.46,4.3,1.55,6.59.26,7.12-.45,14.26.47,21.37-.83,1.24-2.79,2.01-1.61,4.13.85-.66,1.66-1.79,2.52-1.83,1.42-.07,4.57-3.58,4.11,1.59-.03.32,1.33.77,2.04,1.16.31,1.94-.94,2.42-2.46,2.65-1.25-.26-2.42-.39-2.39,1.48-1.04,1.52-2.08,3.04-4.16,1.36-3.77-5.02-2.1-10.87-2.52-16.41-.12-1.62.9-3.99-2.11-3.78.11,23.36.05,46.75.03,70.14,0,4.18,0,8.31,1.83,12.21.35.75.68,1.61.59,2.41-.9,8.65,2.57,17.03,1.52,25.68-.16,1.31.74,3.52-1.61,3.4-1.95-.09-1.69-2.14-1.75-3.59-.08-1.99-.01-3.99-.05-5.98.14,6.11-.43,12.18-.74,18.1,5.38.88,11.11.91,16.84.79-2.98-.02-5.97.05-8.94-.03-1.23-.03-2.91.55-3.38-1.22-.41-1.53.7-2.43,1.96-3.09,13.09-1.24,26.2-.7,39.3-.76,19.27-.08,38.54-.07,57.82.03,3.4.02,7.04-.71,10.1,1.64,0,.31.02.63.05.94-1.45.87-3.95-.45-4.37,2.77-.26,2-2.81,1.19-4.36,1.19-11.99.06-23.99.03-35.98.03h-184.75c1.99-1.66,3.8-.49,5.69-1.43-1.83-.73-4.49-1.65-2.47-3.67,3.58-3.59,1.43-7.17.77-10.78-.27-1.49-.96-2.89.5-4.11,2.21,1.7,2.16,4.39,2.92,6.71,1.1,3.39,3,5.87,6.76,6.54,6.03,1.08,9.29-.92,10.4-6.97.9-4.9,1.46-9.86,1.47-14.88.01-6.81,1.06-7.84,7.84-7.88,15.48-.08,30.95-.09,46.43.04,2.22.02,5.13-.88,6.13,2.48-1.86,1.17-3.84,1.94-6.08,1.94-11,.01-21.99.03-32.99-.03-.92,0-2.06.29-2.1.18.2.36,1.58-.18,2.65-.18,10.5.06,20.99.02,31.49.04,2.74,0,5.29-.43,7.39-2.36,5.18.2,7.32,2.09,7.99,7.41.55,4.3.12,8.64.29,12.96.22,5.39,1.78,6.93,7.29,7.31,6.02.41,8.74-1.24,9.22-6.48.76-8.28.73-16.64.07-24.91-.5-6.15-.72-12.27-.72-18.42,0-26.43-.02-52.87.02-79.3,0-2.78-.5-5.7,1.45-8.16Z"/><path class="cls-23" d="M730.55,984.65c11.28.83,22.43-.95,33.49,1.09,2.56.47,6.3.8,5.99,3.6-.31,2.84-3.97,3.48-6.97,3.44-21.73-.34-43.46-.68-65.19-.96-2.66-.03-5.14-1.2-5.21-3.53-.06-1.99,2.83-2.18,4.8-2.55,11.05-2.07,22.2-.22,33.09-1.09Z"/><path class="cls-15" d="M746.8,1069.68c-5.08-2.13-10.49-.1-15.65-1.56h237.84c-1.94,1.14-3.75.61-5.47.61-69.82.03-139.63.02-209.45.07-2.08,0-4.35-.8-6.22.89-.35,0-.7,0-1.05,0Z"/><path class="cls-9" d="M522.86,1068.78c1.57-1.29,2.36-2.89,2-4.95,1.66,1.37.75,3.25.99,4.9-.99.02-1.99.03-2.98.05Z"/><path class="cls-9" d="M535.86,896.8c-1.06-.21-2.14-.78-.56-1.5,1.33-.6,3.04-.36,4.58-.48-.91,1.55-3.16.35-4.03,1.98Z"/><path class="cls-9" d="M538.86,902.8c-1.83-.74-2.1-2.27-2.01-3.98,1.3,1.01,1.82,2.41,2.01,3.98Z"/><path class="cls-9" d="M214.89,1065.75c1.92,2.81,4.71,3.06,7.85,3.06,62.14-.06,124.27-.05,186.41-.01,1.91,0,4.03-.75,5.7.93-64.88,0-129.75.02-194.63.04-1.85,0-3.66-.05-5.33-.96-3.03-1.02-1.63-2.04,0-3.07Z"/><path class="cls-9" d="M288.89,1062.77c-1.81,2.56-4.29,3.09-7.33,3.06-13.61-.14-27.23-.27-40.83.02-8.07.17-15.99-.46-23.86-2.09,1.48-1.61,3.43-.96,5.18-.97,22.28-.04,44.56-.02,66.84-.01Z"/><path class="cls-22" d="M1074.5,88.99c-26.48,0-52.97-.1-79.45.08-4.67.03-6.47-1.17-6.37-6.14.36-16.75,6.99-29.43,22.81-36.2,6-2.57,10.24-6.12,13.65-12.02,14.94-25.8,43.35-34.62,70.76-22.44,13.69,6.08,23.15,15.45,29.75,28.27,1.94,3.76,3.13,8.01,4.02,12.17.7,3.25,2.03,4.45,5.34,4.37,3.79-.1,7.57-.3,11.41.58,11.59,2.67,17.68,10.45,20.25,21.37,1.84,7.82,1.51,7.56-6.32,9.15-5,1.02-9.93.77-14.89.78-23.65.08-47.31.04-70.96.03Z"/><path class="cls-9" d="M416.89,1069.73c1.49-1.59,3.44-.94,5.19-.94,33.6-.04,67.19-.02,100.79-.02-1.31,1.51-3.09.97-4.68.97-33.76.02-67.53,0-101.29-.01Z"/><path class="cls-22" d="M766.82,887.84c-105.6-.01-211.2-.03-316.8-.04-7.39,0-7.35.02-4.62-7.22.69-1.84.99-3.83,1.47-5.75,4.29-9.94,5.71-20.42,4.67-31.06-.72-7.36-1.89-14.7-4.36-21.85-3.3-9.54-8.13-18.13-14.56-25.73-8.57-10.14-19.26-17.84-31.42-22.98-31.57-13.33-66.76-9.38-92.82,15.78-6.57,6.34-11.52,14.1-16.47,21.77-1.87,2.9-4.36,5.31-6.28,8.24-1.66,2.53-2.32,4.98-2.73,7.69-.96,6.54-2.02,13.08-2.66,19.65-1.19,12.26.25,24.4,5.41,35.51,4.86,10.45,6.19,21.2,6.2,32.38.02,21.83-.08,43.65.08,65.48.03,3.83-.88,5.39-4.99,5.14-5.48-.34-10.99-.16-16.49-.05-2.48.05-3.78-.7-3.59-3.4.82-11.74,1.25-23.51,2.5-35.2.81-7.6.11-15.21,1.38-22.82,2.19-13.18.35-26.59,1.29-39.84,1.31-18.48,2.74-36.96,4.62-55.41,1.83-17.95,4.31-35.81,6.62-53.69.41-3.19-1.19-4.67-3.28-5.17-2.18-.52-3.63,1.6-3.95,3.68-1.15,7.51-2.31,15.03-3.1,22.59-1.77,16.95-3.39,33.91-4.93,50.88-.87,9.57-1.47,19.16-2.13,28.75-.13,1.83,0,3.66-.78,5.39-.85,1.84,1.09,5.15-1.51,5.55-2.06.32-3.57-2.64-5.1-4.36-14.36-16.26-28.67-32.55-43-48.83-.33-.37-.68-.74-1.05-1.07-1.21-1.1-2.41-2.78-4.24-1.49-1.98,1.4-1.79,3.59-.66,5.36,1.78,2.79,3.73,5.5,5.89,8,9.54,11.03,19.03,22.1,28.85,32.88,5.93,6.51,11.58,13.23,16.97,20.18,3.14,4.05,3.2,8.8,2.44,13.38-1.5,9.06-.73,18.2-1.67,27.29-1.51,14.66-2.22,29.4-3.07,44.12-.19,3.33-1.61,4.27-4.67,4.24-9.33-.1-18.66.03-27.99-.06-7.45-.07-11.08-5.85-14.27-11.02-14.54-23.55-22.75-49.26-26.4-76.74-2.07-15.62-2.2-31.21-1.5-46.75.73-16.03,4.14-31.79,9.5-47.03,5.48-15.57,12.61-30.26,23.15-43.1,11.02-13.43,24.12-23.75,41.13-28.91,11.88-3.6,23.7-4.17,35.83-2.42,2.83.41,5.65.2,8.39-1.35-1.02-3.25-3.18-4.83-6.6-5.68-14.08-3.5-27.57-1.77-40.84,3.66-6.29,2.57-12.69,4.87-18.8,7.89-2.73,1.35-5.03,2.24-5.27-2.73-.14-3,.37-5.89.31-8.84-.21-12.09-.8-24.21-.72-36.27.08-12.61.63-25.24.64-37.87.03-28.99.62-58-.11-86.97-1.82-71.77-.22-143.55-.86-215.31-.03-2.85.17-5.63,1.02-8.36.67-.67,1.33-1.33,2-2,.61-1.19,1.53-1.91,2.91-1.94,6.54.06,13.06-.33,19.59-.66,134.06-.09,268.12-.19,402.18.13,18.62.04,37.27.15,55.9.47,1.83.03,3.68-.1,5.32.96,154.04.02,308.08.03,462.13.05,2.31,0,4.69-.36,6.81.99,1.76,1.94,1.42,4.36,1.42,6.66.02,91.88.61,183.76-.27,275.62-.36,37.91-.09,75.83-.66,113.74-.02,1.31.34,2.67-.41,3.91-2.32,1.55-4-.2-5.75-1.21-15.25-8.79-31.26-14.45-49.26-12.89-4.15.36-7.81,2.93-12.14,2.21-1.11-.19-1.76.73-1.85,1.89-.09,1.21.02,2.3,1.22,3.03,1.19.72,2.45,1.01,3.81.96,9.48-.38,18.94-.03,28.2,2.07,9.06,2.05,17.66,5.37,25.85,9.92,10.24,5.69,19.48,12.73,26.79,21.7,10.61,13.03,17.84,28.02,22.08,44.35,2.49,9.59,4.51,19.28,6.05,29.09,1.68,10.77.58,21.57.94,32.35.12,3.49,0,6.99,0,10.49-1.91,6.34-1.86,12.97-2.95,19.43-1.82,10.74-4.16,21.31-7.32,31.78-2.62,8.71-5.12,17.42-8.57,25.85-3.2,7.8-6.14,15.71-9.61,23.39-1.3,2.88-3.82,4.67-7.58,4.64-16.31-.17-32.63-.13-48.94-.01-3.58.03-5.1-1.1-5.07-4.87.12-12.12-1.17-24.19-1.15-36.33,0-5.23-.77-10.55-.82-15.86-3.17-10.12-1.74-19.6,5.4-27.41,10.77-11.78,21.05-24.02,32.19-35.47,10.55-10.85,20.55-22.22,31.25-32.94.24-.24.49-.46.67-.74.97-1.42,3.25-2.9,1.36-4.59-1.58-1.4-3.52.25-4.78,1.49-4.52,4.42-9.04,8.86-13.4,13.44-15.49,16.27-30.24,33.23-45.75,49.48-2.01,2.11-3.77,5.65-7,4.87-3.43-.83-2.07-4.79-2.59-7.37-1.34-6.71-1.14-13.61-1.39-20.37-.43-11.52-2.41-22.82-3.46-34.24-1.6-17.39-3.99-34.69-5.81-52.06-.31-2.96-.58-5.92-2.8-8.87-2.26,3.13-1.58,6.25-1.22,9.2,1.53,12.55,3.79,25.01,5.22,37.58.32,2.77,1.54,6.15-1.11,7.93-2.76,1.86-5.26-.9-7.61-2.29-3.16-1.88-5.81-4.98-10.21-4.11.21,2.76,2.35,3.37,4.01,4.2,13.15,6.62,18.26,17.99,18.3,31.92.03,10.82.64,21.6,1.11,32.4,0,2.12.03,4.24.67,6.29.48,2.47.28,4.97.37,7.45-.35,4.41,1.46,8.67.91,13.08-.23,1.84.18,4.15-2.73,4.31-.51-.06-1-.21-1.47-.41-1.65-.97-3.16-2.12-4.32-3.68-.23-.4-.49-.78-.78-1.13-3.69-4.79-8.75-8.11-13.54-11.5-15.35-10.86-24.3-25.14-25.48-44.07-.35-5.6-.68-11.22-1.39-16.78-.19-1.51-.22-4.31-2.69-4.09-1.98.18-3.04,2.35-3.76,4.18-.35.87-.19,1.97-.14,2.96.63,11.54,1.1,23.09,2.83,34.54.35,2.3.46,4.65-.83,6.78-1,.01-2.01.02-3.01.03-6.65.74-13.3.72-19.96.02-43.82-.02-87.65-.03-131.47-.05-5.49,0-6.99-1.38-7.51-6.8-1.47-15.47-8.94-27.36-21.4-36.46-6.47-4.73-13.58-8.21-20.78-11.54-2.28-1.06-2.89-1.99-2.31-4.5,1.71-7.4,2.93-14.66,1.76-22.56-2.46-16.63-18.25-30.59-34.23-31.19-53.61-2.04-107.24-.45-160.85-.86-33.99-.26-67.99.06-101.98-.1-14.07-.06-25.51,5.01-34.43,15.86-3.45,4.2-5.61,8.97-6.3,14.34-1.88,14.56-.04,27.81,12.69,37.56,5.14,3.93,11.04,5.27,17.09,6.17,7.06,1.06,14.21,1.12,21.36,1.12,71.49-.06,142.97-.03,214.46-.03,6.34,0,6.23-.03,4.11,5.95-3.6,10.18-8.38,19.87-12.48,29.83-1.1,2.68-2.59,3.3-5.23,3.25-8.16-.14-16.33-.03-24.49-.02Z"/><path class="cls-17" d="M1148.66,279.9c.86,4.59-.99,6.62-5.68,6.07-1.48-.17-3,.08-4.49-.05-2.83-.24-4.26,1.03-3.67,3.76,1.21,5.61-1.7,9.27-5.34,12.85-2.33,2.28-5.04,1.41-7.55,1.32-3.93-.13-5.6,1.36-5.17,5.26.09.82.01,1.66.01,2.5,0,7.42-.51,7.84-8,7.35-1.98-.13-3.75-.37-3.9-2.83-.13-2.06,1.05-2.96,3-3.22,2.25-.29,3.73-1.61,3.82-3.9.1-2.4-.19-4.75-3.42-5.06-2.95-.29-5.01.33-4.5,3.94.49,3.47-1.34,4.11-4.4,4.1-39.98-.07-79.96-.08-119.94,0-3.29,0-5.16-.69-4.64-4.38.47-3.38-1.59-3.64-4.27-3.73-5.98-.18-11.97-6.73-11.75-12.37.08-2.05.28-3.66,2.88-3.62,1.41.02,2.53-.94,1.83-2.18-1.59-2.79-.16-5.57-.16-8.27,0-2.92.98-5.2-3.31-5.83-2.11-.31-1.53-3.06-.19-4,5.25-3.68,7.37-11.39,15.16-11.77,1.51-.07,1.79-1.25,1.79-2.51,0-1.33.02-2.66.02-4,0-7.37,1.57-8.63,8.95-7.37,1.7.29,2.95.97,2.97,2.75.03,3.79,2.56,4.41,5.4,4.2,4.86-.36,9.94,2.02,14.27.72,5.2-1.56,10.06-.55,15.01-.58,26.15-.19,52.31-.13,78.46-.04,4.18.01,8.26-.45,12.37-1.02,2.85-.4,5.06.2,4.55,3.87-.48,3.42,1.24,4.42,4.36,4.13,1.82-.17,3.66-.03,5.49-.03,6.41,0,6.37,0,6.17,6.32-.06,1.78.09,3.18-2.48,3.16-1.15,0-2.51,1.37-2.14,2.89.32,1.32.26,3.27,2.21,3.5,3.57.42,6.64,2.89,10.53,2.18,4.54-.83,6.65,1.21,5.75,5.9Z"/><path class="cls-30" d="M234.91,334.9c-.67.34-1.34.69-2,1.03-.7-2.68.96-3.01,2.99-3,3.31.01,6.62,0,10.42,0-2.2-1.94-4.66-.08-6.91-2.02h423.04c-2.4-1.7-4.56-.36-7.63-1.98h96.01c.32.74.09,1.22-.69,1.42-8.59.13-17.18.04-26.52.05.09,0,1.13.84.79.26-.09-.16.05-.25.42-.25,35.79-.62,71.59-.47,107.39-.48,114.26,0,228.52,0,342.78.03,2.6,0,5.36-.72,7.78.96-.17,1.44,1.23,1.72,2.33,3h-427.38c-29.56-4.22-59.28-.99-88.91-1.99-1.62-.05-3.25,0-4.88.99h14.71c11.66,0,23.32,0,34.98,0,1.97,0,4.11-.38,5.2,1.96-154.65,0-309.29,0-463.94-.01-6.66-.75-13.31-.78-19.96.02Z"/><path class="cls-22" d="M330.89,280.44c0,9.56-7.57,16.48-18.01,16.48-9.62,0-16.99-7.39-16.97-17.02.02-9.84,7.92-17.98,17.44-17.97,9.09.01,17.54,8.92,17.54,18.5Z"/><path class="cls-22" d="M359.86,279.66c0-10.36,7.44-17.8,17.71-17.72,8.57.06,16.25,8.5,16.28,17.9.04,9.67-7.21,16.71-16.7,17.21-9.78.51-18.84-8.46-17.3-17.38Z"/><path class="cls-37" d="M1187.82,735.86c-.02-57.92-.05-115.83-.06-173.75-.01-75.39,0-150.78-.01-226.18.34,0,.68,0,1.01,0,1.67,4.27,1.45,8.79,1.45,13.22.05,75.53.04,151.06.03,226.59,0,14.42.02,28.84-.02,43.26,0,1.62.43,3.32-.46,4.87-1.63,1.48-.97,3.43-.97,5.18-.04,33.47-.03,66.94-.01,100.41,0,2.12-.38,4.27,1.18,6.21,1.36,1.69-.14,2.66-1.39,3.59-1.37-.91,1.05-2.62-.75-3.39Z"/><path class="cls-8" d="M1182.76,330.93h-462.6c0-.33-.01-.67-.02-1h30.68c1.73-.92,3.6-.46,5.4-.46,140.38-.02,280.76-.02,421.14,0,1.8,0,3.67-.45,5.4.46v1Z"/><path class="cls-16" d="M1182.76,329.93c-143.98,0-287.96,0-431.94,0v-1c141.92,0,283.84,0,425.75.04,2.06,0,4.36-.84,6.18.96Z"/><path class="cls-1" d="M1189.76,575.87c-.63-79.98,1.27-159.97-1-239.95h1c1.8,1.82.96,4.12.96,6.18.05,77.92.04,155.84.04,233.77-.33.46-.66.46-.99,0Z"/><path class="cls-29" d="M234.71,304.04c-1.77-.51-4.78.78-4.5-1.81.33-3.12,3.92-1.16,5.89-2.16,1.11-.56,2.78.02,2.63,1.89-.24,2.97-2.75,1.45-4.03,2.09Z"/><path class="cls-29" d="M230.06,336.63v-15.48c.1,4.93,2.18,9.9,0,15.48Z"/><path class="cls-30" d="M253.81,329.7h-13.72c0-.16,0-.31,0-.47h13.72c0,.16,0,.31,0,.47Z"/><path class="cls-22" d="M406.78,923.84c.04,23.3.36,46.59.02,69.88-.28,19.29,1.43,38.52,1.04,57.8-.08,3.93.43,8.5-3.95,10.4-4.38,1.9-9.13,1.3-13.54-.57-2.09-.89-2.53-2.83-2.49-5,.09-4.49-.07-8.99.06-13.48.14-5.03-1.83-8.28-7.03-9.11h0c-1.31-1.5-3.08-.98-4.67-.98-16.44-.03-32.88.1-49.32-.1-3.91-.05-5.24,1.05-5.09,5.04.26,6.75-.07,13.51-2.34,20.03-.99,2.83-2.05,5.2-5.73,5.05-4.41-.19-9.1.87-11.92-4.09-1.94-3.42-2.27-7.2-2.95-10.92.01-31.32.26-62.64-.06-93.96-.18-17.48.84-34.91,1.25-52.36.19-7.89-3.46-14.11-6.31-20.71-8.38-19.37-8.77-38.62-1.01-58.33,4.78-12.14,12.67-21.91,22.33-30.01,21.23-17.8,45.98-23.18,72.6-16.24,23.72,6.19,41.04,20.94,51.11,43.7,6.98,15.78,7.73,31.93,3.42,48.48-.29,1.11-.29,2.3-.42,3.46-3.49,8.23-7.77,15.99-12.99,23.28-9.73,13.57-23.43,21.27-38.79,26.48-5,1.7-6.73.23-7.15-4.97-.05-.66-.04-1.35-.24-1.97-1.34-4.29-1.19-9.58-7.23-10.72-7.34-1.39-13.08.96-16.54,7.17-1.69,3.03-3.07,6.27-4.29,9.52-.81,2.15-1.44,3.05-4.18,2.48-2.79-.58-6.86-3-8.39-.62-1.49,2.31,2.32,5.19,3.47,7.91,1.59,3.77,5.35,5.95,6.46,9.9.2.7.64,1.3,1.37,1.12,1.09-.28,1.19-1.42,1.7-2.25,4.33-6.96,5.99-14.97,9.06-22.43.38-.92.74-1.9,1.35-2.66,1.75-2.16,3.91-3.8,6.88-2.89,3.13.96,4.11,4.02,3.47,6.42-3.65,13.67-5.85,28.05-16.72,38.62-5.52,5.36-13.88,5.77-19.86.94-4.29-3.46-7.73-7.64-10.38-12.49-.7-1.27-1.6-2.9-3.38-2.32-1.75.57-1.45,2.38-1.5,3.86-.33,8.62,10.36,19.66,19.58,20.66,17.51,1.9,24.48-5.41,30.73-18.38,1.66-3.45,2.73-7.38,4.31-11.01,2.32-5.33,6.29-8.35,11.88-9.61,5.49-1.23,10.94-2.65,16.4-3.99Z"/><path class="cls-22" d="M222.53,694.12c-3.72-4.26-5.14-8.69-6.81-12.86-9.64-23.97-20.31-47.48-31.46-70.78-9.02-18.85-17.59-37.91-26.64-56.74-1.94-4.03-3.91-8.05-5.88-12.07-3.14-6.42-1.56-11.72,2.74-16.91,5.93-7.16,9.93-15.6,14.92-23.39,1.13-1.77.87-4.49,1.07-6.79.16-1.88-1.17-1.92-2.26-1.2-1.77,1.16-3.53,2.24-4.79,4.2-5.31,8.23-10.96,16.25-15.41,25.02-.7,1.38-1.32,3.48-3.09,3.37-1.57-.1-1.65-2.2-2.32-3.52-6.1-12.1-12.35-24.12-18.46-36.21-6.86-13.59-13.61-27.23-20.41-40.84-1.39-2.79-.39-3.38,2.49-3.29,26.43.79,45.04,15.38,60.6,34.8,8.8,10.98,15.28,23.55,22.23,35.77,5.23,9.21,11,18.1,16.35,27.24,5.61,9.57,11.17,19.17,16.4,28.95,1.86,3.49,2.03,7.67,2.04,11.64.06,24.16.29,48.32-.09,72.47-.16,9.93.67,19.85.1,29.77-.2,3.54-.8,7.05-1.31,11.36Z"/><path class="cls-22" d="M222.82,719.82c-13.49-7.07-26.7-12.78-39.76-18.83-8.4-3.89-16.55-8.37-25.06-12-14.31-6.11-23.8-16.94-31.09-30.15-12.12-21.97-20.71-45.38-28.24-69.23-3.98-12.58-8.13-25.1-12.22-37.64-1.26-3.87.16-4.64,3.59-3.18,8.24,3.5,16.48,6.98,24.7,10.51,13.71,5.88,27.4,11.8,41.11,17.68,3.76,1.61,6.85,3.75,8.56,7.77,4.52,10.66,8.91,21.4,13.99,31.79,6.82,13.97,12.69,28.35,19.19,42.46,4.36,9.46,8.25,19.14,12.43,28.68,3.32,7.59,6.73,15.15,10.18,22.69,1.23,2.7,2.6,5.33,2.64,9.45Z"/><path class="cls-22" d="M167.23,984.8c-2.09,0-3.9,0-5.71,0-33.14,0-66.29.06-99.43-.05-5.33-.02-10.51,1.53-15.88,1.04-4.37-.4-7.84-4.07-7.17-8.37,2.49-16.11,8.45-30.2,22.52-39.92,11.61-8.01,24.26-10.22,37.87-7.97,14.8,2.44,27.81,9.04,39.01,18.74,9.77,8.45,18.53,18.01,24.83,29.47,1.19,2.16,3.6,3.55,3.95,7.06Z"/><path class="cls-22" d="M126.91,507.89c9.46,17.22,17.26,35.3,27.22,52.26.57.96.87,2.13,1.06,3.25.33,1.95,3.72,3.59,1.32,5.62-1.89,1.6-4.08-.71-5.86-1.48-20.59-8.91-41.14-17.92-61.55-27.24-3.67-1.68-6.17-4.66-6.34-9.72-.58-17.53-2.01-35.03-2.74-52.56-.39-9.23,4.02-16.92,9.38-24.06,1.94-2.58,4.1-5.01,6.24-7.61,9.87,19.42,19.56,38.48,29.26,57.55,1.02,1.15.94,2.86,2.01,3.99Z"/><path class="cls-9" d="M221.24,1066.9h70.32c0,.17,0,.33,0,.5h-70.53c.07-.17.14-.33.21-.5Z"/><path class="cls-27" d="M126.91,507.89c-1.8-.76-2.1-2.28-2.01-3.99,1.84.74,2.1,2.28,2.01,3.99Z"/><path class="cls-22" d="M1333.86,547.66c-2.46,8.21-4.51,15.43-6.8,22.58-6.55,20.47-13.71,40.68-22.76,60.26-4.92,10.63-9.14,21.63-14.5,32.07-5.36,10.44-13.4,18.62-23.76,24.06-17.8,9.34-36.13,17.6-54.45,25.84-3.91,1.76-7.79,3.57-11.7,5.32-1.03.46-2.13,1.45-3.24.69-1.34-.93-.14-2.16.15-3.15,3.51-11.92,8.37-23.31,13.52-34.6,7.21-15.81,14.21-31.73,21.53-47.49,7.82-16.84,15.9-33.56,23.19-50.65,1.45-3.41,4.29-5.26,7.67-6.61,15.8-6.33,31.52-12.83,47.32-19.17,7.59-3.05,15.27-5.86,23.86-9.15Z"/><path class="cls-22" d="M1195.78,689.62c0-3.44,0-6.38,0-9.32,0-15.49-.56-31.01.14-46.48.94-20.79.68-41.58.81-62.37.02-3.44,1.01-6.75,2.74-9.47,11.64-18.25,22.63-36.91,34.42-55.07,7.8-12,14.83-24.52,23.76-35.75,11.44-14.39,25.64-24.78,43.85-28.97,1.75-.4,3.65-.39,5.46-.26,2.93.21,7-1.49,8.53.93,1.73,2.74-1.67,5.67-3.01,8.37-6.81,13.79-13.79,27.49-20.76,41.19-3.82,7.52-7.76,14.99-11.61,22.49-1.35,2.63-2.72,5.25-3.85,7.97-1.63,3.93-3.66,2.32-4.71.05-2.96-6.35-7.64-11.58-10.97-17.63-2-3.63-5.34-6.35-6.64-10.45-.37-1.16-1.7-2.32-3.22-1.67-1.4.59-1.21,1.97-1.31,3.37-.46,6.59,4.74,10.35,7.46,15.29,3.34,6.07,7.41,11.73,11.11,17.6,2.45,3.89,2.26,7.75.09,11.79-7.4,13.75-13.85,28.01-20.28,42.19-11.29,24.9-23.94,49.14-35.15,74.07-4.46,9.93-9.21,19.81-14.04,29.6-.42.86-.74,1.88-2.84,2.5Z"/><path class="cls-22" d="M1339.8,494.04c-.67,13.39-1.19,26.8-4.04,39.98-.57,2.65-1.85,4.45-4.42,5.53-21.66,9.11-43.29,18.29-64.93,27.44-1.04.44-2.17,1.4-3.16.2-.94-1.15.19-2.07.7-3.09,14.65-29.32,29.24-58.66,43.9-87.98,4.46-8.93,9.06-17.78,13.61-26.66,1.57-3.07,3.04-3.37,5.45-.42,7.66,9.39,10.6,20.36,11.96,32.1.5,4.31.9,8.57.93,12.9Z"/><path class="cls-1" d="M1189.76,575.87h.99v155.71c-.33,0-.67,0-1,0v-107.73c0-16,0-31.99,0-47.99Z"/><path class="cls-5" d="M916.81,909.8c-1.46.62-2.42.24-1.92-1.42,1.18-3.89,2.4-7.76,1.95-12l1.48.07c-.17,3.13-.34,6.25-.51,9.38-.15,1.37.4,2.91-.99,3.97Z"/><path class="cls-22" d="M909.77,909.79c-4.98,7.8-9.77,15.65-17.56,21.25-12,8.63-24.86,13.27-39.83,10.78-19.62-3.26-34.38-13.35-43.07-31.31-4.56-9.42-5.91-19.69-3.57-30.07,4.96-21.99,18.93-35.07,40.41-40.96,30.32-8.31,58.87,11.26,66.14,38.31,2.34,8.72,1.79,17.38-.49,26-1.46,1.73-1.33,4-2.03,5.99Z"/><path class="cls-22" d="M980.8,901.83c1.29-.6,1.98-1.58,1.94-3.03-.53-.68-.57-1.34.09-1.97,1.86-1.02,3.32-1.16,5.4.27,9.65,6.61,18.79,13.83,27.79,21.28,7.74,6.4,16.11,12.04,23.79,18.52,11.13,9.4,23.02,18.08,32.05,29.65,4.34,5.55,9.13,10.91,12.19,17.6-1.11,1.13-2.5.62-3.69.62-26.81.04-53.61,0-80.42.09-4.13.01-7.07-1.16-9.68-4.72-10.68-14.55-15.94-30.78-15.33-48.71.22-6.55,1.88-13.06,2.88-19.59,0-.22,0-.44,0-.66-.15-2.04.42-3.94,1.06-5.84.49-1.25.72-2.65,1.93-3.5Z"/><path class="cls-4" d="M1314.74,984.8c-18.98,0-37.95,0-56.93,0-2.13,0-4.87.67-6.03-1.35-1.18-2.06,1.59-3.28,2.5-4.93,5.81-10.56,13.46-19.73,22.22-27.84,14.96-13.85,32.38-22.73,53.27-21.73,18.01.86,31.9,9.27,41.33,25.11,4.45,7.47,7.48,15.1,7.58,23.77.07,5.83-1.2,6.99-7.01,6.99-18.98.01-37.95,0-56.93,0v-.02Z"/><path class="cls-22" d="M1135.78,939.79c-.01,13.13-.18,26.27.04,39.4.07,4.41-1.44,5.84-5.77,5.69-7.8-.28-15.63-.04-23.44-.11-5.78-.05-8.12-2.66-8.89-8.43-2.72-20.29-3.68-40.77-6.71-61.03-.65-4.37-.71-8.89-1.17-13.33-.14-1.34-.76-3.25,1.16-3.9,1.47-.5,2.29.98,3.34,1.75,9.45,6.94,18.2,14.84,28.16,21.1.68.43,1.51.62,2.26.92.74.03,1.35.36,1.91.81,2.92,2.71,5.67,5.58,7.82,8.97.75,1.52,1.59,2.99,2.08,4.63.3,1.3.16,2.5-.79,3.52Z"/><path class="cls-26" d="M1135.78,939.79c-.02-1.32-.03-2.65-.05-3.97,0-.24.02-.47.02-.71-.15-2.39-.32-4.79.09-7.17.07-.48.2-.95.35-1.41.21-2.97.26-5.96,1.3-8.82.18-.62-.86.02-.21.17.18.04.02.16-.08.48-.14.46-.05,1.1-.6,1.25-1.3.36-1.33-.72-1.28-1.45.25-4.14-.69-8.27-.12-12.4.63-4.61,1.57-10.12.24-13.64-1.27-3.38.39-6.55-1.35-8.93-.74,1.85,1.99,4.82-1.32,6.62-1.41-13.2-.4-26.51-1.88-39.73-1.32-11.8-8.35-18.92-18.18-24.12-.87-.46-1.87-.75-2.59-1.38-1.45-1.27-2.39-3.33-1.76-4.87.77-1.85,2.59.1,3.97.04,4.89-.21,7.4,4.08,11.21,5.91,1.43.69,2.91,2.45,4.48,1.48,1.56-.97.87-3.12.67-4.65-1.36-10.15-2.94-20.28-4.33-30.43-.67-4.91-1.06-9.86-1.61-14.78-.3-2.67.47-4.91,2.63-6.84,3.11,2.41,3.89,6,4.29,9.55,2.45,21.85,4.49,43.75,7.24,65.56,1.64,13.01,2.5,26.03,2.92,39.1.05,1.63.55,3.26.87,4.88.38,1.89-.98,4.78.89,5.51,2.18.85,3.49-2.01,4.86-3.49,13.62-14.73,27.09-29.6,40.73-44.32,6.42-6.93,13.11-13.61,19.68-20.4.23-.24.45-.64.71-.66,2.35-.24,4.66-3.69,6.7-1.42,2.24,2.49.27,5.08-1.86,7.3-11.95,12.39-23.95,24.74-35.63,37.39-9.64,10.44-18.79,21.33-28.6,31.63-4.3,4.52-6.83,10.16-6.44,16.76.2,3.32.02,6.66.01,9.99-2.24,4.11.25,9.07-2.58,13.14-.99-.34-2.19-.74-3.38-1.15Z"/><path class="cls-22" d="M1058.81,894.82c5.64,0,11.28,0,16.92,0,5.45,1.03,7.35,4.9,7.82,9.87,1.08,11.34,2.11,22.69,3.24,34.03,1.1,11,2.27,21.99,3.49,32.98.14,1.28,1.06,2.72-.31,3.63-1.42.95-2.35-.49-3.41-1.24-10.41-7.39-14.66-18.39-17.75-30.08-3.71-14.05-7.37-28.11-11.19-42.12-.73-2.69-1.6-5.11,1.19-7.08Z"/><path class="cls-2" d="M1046.77,895.81c3.94,3.21,4.37,8.16,5.51,12.48,2.94,11.16,5.19,22.5,7.69,33.78.09.41-.03.87-.09,2.04-19.77-16.04-39.1-31.72-59.52-48.29,16.11,0,31.27,0,46.42,0,0,0,0,0,0,0Z"/><path class="cls-26" d="M1125.72,922.82c-.32-.32-.64-.64-.96-.96-1.43-2.72,1.13-4.12,2.02-6.08.33,0,.66.03.99.06.55,2.11,1.14,4.19,4,3.95h0c.81,3.2,4.14,4.83,5,8-1.38,2.53.32,5.45-1,7.99,0,0-.04.03-.04.03-1.27-1.03-1.83-2.41-1.98-3.99-.88-4.6-5.09-6.24-8.04-9.01Z"/><path class="cls-5" d="M977.81,911.83c-1.21.12-.67-4.37-3.14-1.15-.99,1.29-1.86.43-1.79-.76.25-4.26.61-8.51,1.09-12.75.14-1.19,1.25-1.49,2.3-.96,1.42.72,1.78,1.92,1.02,3.31-.77,1.41-2.67,2.26-2.44,4.14.35,2.88,1.29-.11,1.94.12.19.18.38.35.58.53,1.19,2.43,1.24,4.94.44,7.49h0Z"/><path class="cls-5" d="M1003.67,901.39c-2.64-.78-4.89-.8-7.13-.93-1.09-.06-2.34-1.3-3.09-2.32-.61-.84.51-1.36,1.23-1.72,1.4-.7,4.1-.88,4.1-.22,0,3.39,4.03,1.95,4.89,5.19Z"/><path class="cls-5" d="M980.8,901.83c.14,1.44-.34,2.73-1.02,3.97-1.96.78-2.1-1.18-3-2,.69-.9,1.37-1.8,2.08-2.69,1.37-1.73,1.69-.6,1.94.72Z"/><path class="cls-5" d="M982.83,896.82c-.03.66-.06,1.32-.09,1.97-1.31-.2-2.97-.49-2.39-2.18.42-1.25,1.63.05,2.48.21Z"/><path class="cls-22" d="M788.82,957c5.78,3.91,11.33,8.24,16.14,13.48,11.28,12.27,20.09,26.24,28.09,40.77,1.34,2.42,1.78,4.91,1.77,7.65-.08,12.33-.07,24.66,0,36.98.02,3.08.39,6.06-3.86,6.71-3.92.6-7.11-.47-8.68-4.13-2.65-6.21-5.23-12.48-7.28-18.91-4.07-12.78-8.75-25.33-13.2-37.97-4.9-13.89-10.7-27.51-13.61-42.05-.17-.83-.44-1.6.64-2.53Z"/><path class="cls-2" d="M905.74,991.13c.37,10.73-1.6,20.61-3.01,30.53-1.6,11.31-5,22.21-8.11,33.16-1.82,6.42-4.01,7.84-10.71,7.92-3.82.05-7.65-.12-11.47.05-3.33.15-4.18-1.43-3.38-4.29,6.06-21.53,14.36-41.96,29.21-59.16,2.24-2.59,3.52-6.03,7.47-8.21Z"/><path class="cls-24" d="M741.59,1062.6c-8.57,1.79-11.38-4.77-14.17-10.1-3.74-7.13-5.91-15.01-8.1-22.8-1.02-3.62,1.56-3.15,3.39-2.73,5.42,1.25,10.13,4.13,14.32,7.62,6.71,5.6,11.89,12.35,14.7,20.82,1.61,4.85,1.15,6.26-3.95,7.12-2.09.36-4.3.06-6.2.06Z"/><path class="cls-24" d="M950.81,1053.01c1.27,6-4.33,9.94-11.25,9.77-7.61-.19-10.82-2.8-10.77-9.22.06-6.53,4.98-11.9,11.05-11.73,5.52.15,11.78,3.25,10.97,11.18Z"/><path class="cls-34" d="M768.43,1061.77c-4.76.03-7.36-2.28-7.53-6.69-.2-4.96,5.28-11.26,9.82-11.31,4.08-.04,8.95,4.67,9.1,8.81.19,5.31-4.57,9.15-11.39,9.2Z"/><path class="cls-34" d="M182.41,139.98c-3.82,0-7.64.04-11.46-.02-1.21-.02-2.99.36-2.5-1.91,2.15-9.87,11.41-14.78,19.25-12.06,5.44,1.89,7.3,6.48,9.01,11.16.79,2.16-.84,2.86-2.83,2.84-3.82-.04-7.64-.01-11.46-.01Z"/><path class="cls-22" d="M703.35,780.86c48.93,0,89.07-.05,129.21.05,6.63.01,13.19.85,19.53,3.1,10.63,3.77,15.12,12.44,17.6,22.41,1.39,5.6,1.8,11.41-.2,17.17-1.22,3.51-3.1,5.71-6.87,6.25-14.13,2.03-27.78,5.92-41.28,10.52-3.05,1.04-6.39,1.52-9.78,1.52-78.45-.07-156.9.09-235.35-.18-19.14-.07-28.93-8.72-31.21-27.76-1.8-15.05,12.53-31.73,28.33-32.28,46.27-1.62,92.54-.1,130.02-.79Z"/><path class="cls-33" d="M793.81,893.8h-97.74c0-.33,0-.67,0-1,24.25,0,48.5,0,72.75,0h26.93c-.21.4-.29.79-.46.84-.47.13-.98.11-1.47.16Z"/><path class="cls-6" d="M1058.8,887.85c6.65,0,13.31-.01,19.96-.02-6.65,1.61-13.3,1.58-19.96.02Z"/><path class="cls-2" d="M529.84,900.81c2.74,6.12,6.48,11.77,7.46,18.69,1.99,14.06,2.8,27.99-1.12,41.9-1.75,6.21-3.84,12.26-6.4,18.17-1.49,3.44-3.54,5.38-7.86,5.35-25.49-.22-50.98-.2-76.47-.03-4.44.03-4.11-1.28-2.49-4.41,5.56-10.73,13.27-19.75,21.9-28.05.82-.79,2.02-1.22,2.04-2.62,1.44-.84,3.23-1.23,3.97-3,1-1,1.99-2.01,3.01-2.99,17.79-13.59,34.45-28.53,51.45-43.06.61-.52,1.02-1.28,1.52-1.93,2.43-1.5,2.16,1.07,2.99,1.99h0Z"/><path class="cls-4" d="M420.88,959.81c1.45-.01,2.41-.75,3.03-2.01,12.24-8.15,19.33-19.75,22.35-33.91,1.58-7.41.31-14.78-1.22-22.09-1.45-6.93-1.42-6.97,5.59-6.97,3.16,0,6.32,0,9.48,0,3.09,0,4.07,1.47,3.47,4.49-1.9,9.58-4.3,19.02-8.04,28.07-.74,1.79-.62,3.57-.69,5.38-.78.45-.99,1.18-1,2.02.71.99.88,1.97-.02,2.94-3.17,3.97-3.15,9.16-5.16,13.61-3.17,7.01-4.83,14.54-8.85,21.36-5.81,9.86-13.93,13.89-24.96,13.09-2.3-7.43-3.11-14.8,1.04-21.93,1.28-.75,2.33-1.72,3-3.06.44-.77,1.16-.97,1.97-.99Z"/><path class="cls-28" d="M517.99,897.16c-19.77,17.01-38.75,33.36-57.74,49.7-.26-.19-.52-.39-.78-.58,2.1-7.97,4.26-15.93,6.27-23.92,1.78-7.06,3.39-14.16,5.07-21.25,1.01-4.28,3.48-6.24,8.1-6.4,11.16-.38,22.24,1.06,33.37,1.15,1.6.01,3.2.71,5.7,1.3Z"/><path class="cls-22" d="M416.86,952.75c-2.82-.42-1.93-2.67-1.94-4.28-.09-7.89-.06-15.79-.07-23.68-.67-8.29,6.81-10.76,11.2-15.33,1.67-1.73,3.79-3.19,5.58-4.92,3.59-3.47,4.42-3.22,6.23,1.67,3.17,8.55,2.21,16.74-1.15,25.13-3.93,9.81-11.53,15.86-19.85,21.41Z"/><path class="cls-9" d="M529.84,900.81c-1.02-.62-1.43-2.16-2.99-1.99,1.55-1.24,3.25-1.96,5.39-1.75.37,2.19-3,1.68-2.4,3.74Z"/><path class="cls-35" d="M473.88,943.81c-.12,1.89-1.11,2.89-3.01,2.99.08-1.92,1.08-2.93,3.01-2.99Z"/><path class="cls-31" d="M588.47,984.78c-9.83,0-19.65.01-29.48,0-5.18,0-6.23-1.22-4.87-6.22,1.37-5.01,3.57-9.76,6.81-13.79,9.24-11.52,20.19-20.17,36.01-20,9.54.1,20.86,9.36,24.02,18.8,1.81,5.39,1.68,10.72,1.95,16.16.19,3.81-.86,5.28-4.98,5.15-9.82-.3-19.65-.1-29.47-.1Z"/><path class="cls-7" d="M415.91,963.87c-1.79,7.24-.76,14.61-1.04,21.93,2.02,2.08,4.81.2,7.17,1.44-1.98.97-4.33.43-6.04,2.02,1.73,1.3,3.94-.12,6.89,1.54-2.78,0-4.44-.01-6.09,0-1.75.02-1.18,1.09-.9,2.02,0,0-.01-.02-.01-.02-1.01,1.52-.49,3.23-.52,4.85-.3,15.11.14,30.22-.32,45.34-.2,6.53-.33,13.22.84,19.77,0,0,.01-.02.01-.02-1.12,2-.79,3.09,1.76,3.04,3.97-.06,7.94-.02,11.92.64h-21.15c.65-7.34,1.33-15,2.02-22.66.5.02.99.03,1.49.05v12.36c.43-.04.87-.08,1.3-.11-1.46-5.91,1.34-12.12-2.14-17.99-.79-1.34-.55-3.76.06-5.36.93-2.44.76-4.8-.39-6.72-2.39-3.99-1.9-8.24-1.9-12.47-.02-22.97-.03-45.93.09-68.9,0-.77-1.99-4.68,2.11-2.41.52-.96,1.04-1.92,2.07-3.83,1.95,9.01-1.12,17.7,2.77,25.49Z"/><path class="cls-7" d="M453.84,937.74c0-.98.02-1.96.02-2.94,1.49.76,2.56,1.91,1.59,3.54-.89,1.52-1.44.62-1.62-.6Z"/><path class="cls-22" d="M354.81,1062.05c-6.82,0-13.65-.14-20.46.06-3.58.1-5.28-1.35-5.42-4.83,0-.17-.01-.33,0-.5.16-16.87-2.12-18.19,16.92-18.01,9.66.09,19.33.27,28.98-.08,4.98-.18,6.52,1.66,6.11,6.36-.32,3.64-.28,7.34,0,10.98.32,4.27-1.12,6.04-5.63,5.84-6.82-.31-13.66-.08-20.49-.08,0,.09,0,.18,0,.26Z"/><path class="cls-20" d="M380.89,1033.76c-.83,2.94-3.49,2.9-5.61,2.93-11.27.16-22.55.08-33.83.06-1.66,0-3.2-.46-4.81-1.72,14.95-1.08,29.67,1.02,44.25-1.26,0,0,0,0,0,0Z"/><path class="cls-7" d="M412.89,935.11c-1.21-2.24-1.37-4.45-.02-7.63,1.38,3.16,1.16,5.38.02,7.63Z"/><path class="cls-7" d="M420.88,959.81c-.45.75-1.17.95-1.97.99-.77-.18-2.09-.43-1.39-1.35.92-1.2,2.35-.87,3.36.35Z"/><path class="cls-7" d="M408.93,928.28c.79.05.86.77.86,1.4,0,.41-.27.83-.42,1.24-.36-.51-.81-.97-1.07-1.53-.19-.43-.1-.94.63-1.11Z"/><path class="cls-9" d="M415.9,1062.75c-.34-.72-.97-1.44-.97-2.16-.05-21.88-.05-43.76,0-65.64,0-.72.63-1.44.97-2.16,0,23.32,0,46.64,0,69.96Z"/><path class="cls-25" d="M781.79,446.94c6.4,5.66,12.91,11.21,17.04,18.91,1.37,7.12,3.4,14.1,4.59,21.26.62,3.76.98,7.13,5.87,7.89,3.11.48,3.4,3.56,3.96,6.26,5.8,27.95,2,56.25,3.06,84.36.11,2.89-.9,5.43-2,8.1-1.87,4.53-4.06,9.34-.42,14.15-2.82,13.68-9.43,25.45-17.77,36.5-7.76,10.28-16.61,19.24-27.79,25.74-5.54,3.22-10.86,6.96-17.46,7.82-2.07-3.33-4.74-4.91-8.73-3.26-1.38.57-3.07.82-4.42.25-4.18-1.77-6.66.18-8.51,3.57-2.53,4.61-6.67,6.13-11.59,6.35-2.99.13-5.96.48-8.97.33-2.25-.11-4.54-.46-5.76-2.42-2.13-3.42-5.29-3.55-8.72-3.53-6.15.05-12.29.03-18.43-.77-4.05-.53-7.87-1.1-11.13-3.76-1.64-1.34-3.69-1.46-5.7-1.48-3.75-.02-5.25-1.93-5.47-5.58-.36-6.1-.5-6.09-6.53-7q-9.46-1.43-9.47-10.98c0-.5,0-1,0-1.5-.03-6.44-.02-6.4-6.49-5.22-2.98.54-5.95.47-8.8-.84-4.53-2.09-5.4-6.86-1.87-10.41,2.23-2.24,1.38-5.43-1.66-6.28-7.01-1.96-7.24-1.97-7.08-9.03.1-4.06-1.42-6.64-4.95-8.28-1.56-2.15-.83-4.75-1.42-7.08-6.93-4.7-6.22-11.19-4.37-18.06,1.57-5.82-.35-11.58-.84-17.33-.48-5.59-.03-11.35-2.18-16.76-.48-1.21-.39-2.79.31-3.91,3.73-5.87,2.29-12.18,1.81-18.44-.41-5.42-1.05-10.65,1.68-16.05,1.67-3.31,1.22-7.77,2.08-11.67.42-1.93,1.02-3.64,3.16-3.98,3.58-.58,4.49-3.16,4.68-6.13.71-10.84,5.76-19.16,13.17-27.03,4.2-4.47,9.02-8.22,13.06-12.78,1.05-1.19,2.24-1.94,3.78-2.2.98-.17,2.3-.17,2.73-1.04,2.46-5.01,8.37-5.14,11.92-8.63,1.81-1.78,4.17-1.79,6.53-.7,3.19,1.47,5.84,1.35,7.04-2.66.85-2.84,3.27-2.96,5.65-3.09,4.33-.23,9.21,1.19,11.84-4.07.18-.37.86-.57,1.35-.58,8.81-.13,17.07-4.21,26.07-3.44,4.68.4,8.07,3.09,11.53,5.5,2.5,1.74,4.85,2.62,7.8,2.57,4.16-.08,8.33-.06,12.49.02,2.94.05,5.31.83,5.66,4.28.35,3.49,2.48,3.93,5.34,3.14,1.44-.4,2.81-1.06,4.32-1.21,4.08-.4,6.07.91,6.29,4.99.2,3.72,1.82,5.05,5.32,4.75,2.82-.24,5.61.28,8.42.42Z"/><path class="cls-36" d="M1024.17,512.89c0,19.64.13,39.29-.12,58.93-.04,3.41,1.24,3.8,3.94,4.12,5.94.69,11.71,2.18,17.19,4.66,6.54,2.96,11.11,7.22,12.41,14.88,1.91,11.27-1.7,22.49-10.17,27.15-4.87,2.68-10.14,4.69-15.84,5.27-7.78.79-7.59.89-7.83,8.83-.27,8.96.91,17.93-.88,26.87-3.11,15.49-19.15,25.57-33.51,22.6-4.8-.99-9.23-1.9-13.39-4.6-9.68-6.27-12.57-15.84-13.11-26.45-.38-7.48-.15-14.99-.04-22.49.04-2.72-.8-3.79-3.68-3.87-19.12-.51-38.26-1.68-57.36-.73-9.14.45-18.17.18-27.27.09-8.48-.08-20.45-8.95-23.96-17.48-4.92-11.95-2.88-22.65,4.75-32.68,8.52-11.2,16.73-22.64,25.55-33.59,9.75-12.09,19.18-24.45,28.42-36.9,12.71-17.13,26.24-33.6,38.89-50.78,7.74-10.52,14.45-22.33,26.49-29.15,16.85-9.55,45.16-1.67,48.25,21.44,1.67,12.46.52,24.92.85,37.37.24,8.82.05,17.66.05,26.49.12,0,.24,0,.36,0Z"/><path class="cls-25" d="M531.85,571.87c-.17,2.92,1.27,3.91,4.12,4.06,3.97.21,8.08-1.1,11.9.93-2.91,1.69-3.34,2.84.21,4.66,4.4,2.26,6.35,7.61,11.13,9.69.79.34.82,1.77.84,2.77.16,7.16.22,14.32-.02,21.47-.09,2.65-.45,4.64-4.53,3.31-2.13-.7-5.26.34-7.99-.19-1-.2-2.09.56-2.4,1.51-1.17,3.6-3.68,5.29-7.29,5.8-.95.14-1.1,1.1-.93,2-4.18,1.05-5.41,3.6-5.14,7.91.44,6.96.3,13.97.07,20.95-.41,12.6-5.85,22.14-17.67,27.43-20.7,9.27-43.12-5.17-43.3-27.84-.04-5.49,0-10.98,0-16.47,4.91-2.12,4.53-6.35,4.25-10.56-.16-2.39-1.43-3.61-3.78-3.81-1.66-.15-3.33-.12-4.99-.12-27.97,0-55.95-.02-83.92.01-4.08,0-8.03-.09-10.77-4.42-.02-.12-.65,1.25-.04.99.08-.04.12.13.23.44.17.49.16.97.04,1.46-10.58-4.05-17.96-19.57-15.72-31.78,1.66-9.06,6.64-16.03,12-22.94,9.61-12.4,19.71-24.45,28.85-37.19,8.56-11.94,17.51-23.61,26.51-35.16,8.51-10.92,16.85-22.03,25.83-32.61,6.48-7.64,12.04-16.06,18.21-23.97,12.1-15.5,24.87-20.12,44.81-14.1,6.63,2,12.19,6.54,14.51,13.78-.87.69-1.79.84-2.73.19-1.01-.69-1.02-.7-1.08-.23-.33,2.7-.64,5.3,2.43,6.91,3.05,1.6,2.81,4.68,2.83,7.49.07,12.83.04,25.65.02,38.48-.03,25.15.17,50.3-.16,75.45-.04,3.08,3.52,1.45,3.65,3.7Z"/><path class="cls-21" d="M781.79,446.94c-4.28,2.05-8.82.95-13.19.71-2.85-.15-1.65-3.16-1.74-4.94-.24-4.7-2.23-6.2-6.58-4.32-1.69.73-3.21,1.46-5.12,1.57-3.15.18-4.81-.77-4.34-4.18.43-3.15-1.13-4.09-4.07-3.92-2.99.18-6.08-.43-8.97.13-6.54,1.26-11.88-1.42-16.36-5.28-5.58-4.81-12.18-3.74-17.39-2.06-4.52,1.46-8.93,1.16-13.29,2.14-2.05.46-3.99.18-4,3.1,0,1.8-1.42,1.99-2.84,2-2.66,0-5.33.07-7.99,0-2.81-.08-5.13-.26-5.26,3.89-.1,3.12-4.92,4.57-7.98,2.17-2.98-2.33-4.78-1.21-6.73.91-1.45,1.57-2.67,3.42-5.29,2.74-.25-.07-.77.15-.89.38-2.47,4.71-8.27,5.24-11.41,9.15-.88,1.1-2.34,1.76-3.56,2.58-3.06,2.06-5.89,4.09-7.72,7.68-1.42,2.8-4.46,4.74-6.62,7.2-4.14,4.72-6.25,10.49-7.3,16.49-.48,2.7-.43,5.54-1.22,8.25-.28.94-.22,2.21-1.44,2.34-3.05.33-6.18-.38-5.56,4.94.3,2.62-2.4,5.54-.71,8.7.27.51.4,1.67.2,1.78-6.78,3.62-3.44,9.86-3.12,14.68.33,4.97.24,9.93.53,14.89.06,1.13.19,2.43-1.16,3.03-2.77,1.24-2.4,4.12-1.58,5.58,3.31,5.91.8,12.46,2.61,18.53.82,2.73.37,5.88,1,8.84.47,2.2.57,4.65-.31,6.9-3.16,8.16-2.2,11.71,4.46,16.32-.77.83-.95,3.35-2.37,2.14-1.4-1.19-4.75,1.45-4.46-2.45.07-.9-.53-1.86-1.11-2.67-3.62-21.05-3.86-42.32-2.85-63.52,1.16-24.45,7.26-47.5,21.47-68.2,13.65-19.9,32.79-31.08,54.91-38.69,12.85-4.43,26.05-6.56,39.45-6.38,18.12.24,35.18,4.87,51.05,14.2,6.59,3.88,12.82,8.09,18.89,12.65Z"/><path class="cls-23" d="M606.84,607.87c4.2-.33,6.28,1.52,6.01,5.82-.07,1.16.12,2.35-.03,3.49-.66,4.85.63,7.7,6.29,6.74,1.56-.27,3.88-.28,3.56,2.14-.27,2.08,1.83,4.58-1.45,6.44-1.36.77-1.73,3.66-2.13,5.68-.32,1.61,1.48,1.32,2.39,1.88,3.98,2.48,7.83,2.61,12.04.35,3.33-1.79,5.23-.42,5.3,3.45.07,3.82.11,7.65-.01,11.48-.08,2.54.85,3.75,3.47,3.52.83-.07,1.66-.04,2.49,0,9.28.52,9.35.51,10.02,9.72.17,2.27.86,3.53,3.22,3.24,3.83-.46,6.69.96,9.82,3.29,4.42,3.29,10.25,1.78,15.42,2.6,4.06.65,8.3.17,12.45.12,3.33-.05,6.73-.57,7.85,3.98.3,1.21,1.75,1.95,3.22,2,6.26.19,12.73.82,18.4-2.21,2.28-1.22,3.76-4.37,5.02-6.93,1.31-2.67,2.51-3.59,5.25-1.81,2.36,1.53,4.77,1.26,7.46.02,5.1-2.35,7.48-.67,7.96,5.06-1.47,2.75-4.49,3.27-6.9,3.82-9.24,2.12-18.5,4.42-28.12,4.09-5.02.78-10.03.77-15.05,0-10.01-.79-19.77-1.96-29.52-5.25-8.57-2.89-16.38-6.83-24.1-11.16-10.99-6.16-19.4-15.37-27.37-24.9-3.48-4.17-6.25-8.94-9.2-13.53-1.98-3.08-3.57-6.36-3.78-10.13-1.79-4.34-2.47-8.69.01-13.03Z"/><path class="cls-9" d="M813.88,607.88c-2.26.26-3.97-1.09-3.78-2.97.42-4.21.69-8.84,2.7-12.33,1.2-2.09,2.01-3.8,2.01-6.04.01-23.09.01-46.19,0-69.28,0-2.23.07-4.1-2.14-6.07-2.19-1.95-.8-5.68-.79-8.61.01-4.18-.58-7.4-5.94-6.73-1.32.16-2.96.04-3-1.77-.22-9.58-5.63-18.4-4.1-28.22,11.1,13,15.58,28.79,18.99,45.02,1.16,5.52,1.81,11.08,2.08,16.74.44,9.46,1.21,18.9.89,28.38-.56,16.9-1.17,33.8-6.01,50.18-.18.6-.6,1.13-.9,1.7Z"/><path class="cls-19" d="M531.85,571.87c-4.88-3.04-1.81,3.22-4.33,3.39-1.23-1.6-.63-3.64-.63-5.48-.04-38.64-.03-77.27-.04-115.91,0-2.84.49-5.04-3.78-6.58-4.33-1.56-1.94-6.14.13-9.86.89,1.61,1.87,2.86,3.7,2.45,4.2,4.43,4.89,10.12,4.9,15.71.13,38.76.06,77.52.05,116.27Z"/><path class="cls-11" d="M371.87,623.86c-.34-1.44-2.34-1.93-2.18-3.68,1.03-.48,2.35-.56,2.85.2,3.08,4.73,7.8,3.46,12.13,3.47,28.64.04,57.29.01,85.93.02,5.62,0,6.58,1.09,6.16,6.81-.07.97-.27,1.99-.07,2.92,1.03,4.93-.95,6.93-5.85,6.26q-.05-11-10.95-11c-21.77,0-43.54.06-65.31-.05-4.78-.03-9.57-.53-14.33-1.09-3.14-.37-6.05-1.57-8.39-3.86Z"/><path class="cls-29" d="M536.89,627.88c-.78-.18-2.16-.25-2.23-.57-.26-1.26.56-2.52,1.76-2.58,4.25-.21,6.76-2.08,7.85-6.33.48-1.87,2.91-2,4.33-1.4,2.58,1.1,4.74,1.67,6.81-.8.35-.42,1.25-.44,1.72.22.45.64-1.88,2.48.73,2.07,1.38-.22.98-1.91.98-3.02.03-6.99.01-13.98.01-20.96,0-1.69.12-3.24-2.26-3.71-2.8-.55-4.56-2.69-5.63-5.18-.82-1.89-2.38-2.86-4-3.46-1.86-.69-4.34-.58-3.94-3.4.44-3.09,3.15-1.43,4.86-1.89,12.24.62,16.74,9.21,18.76,21.37,1.2,7.21,1.61,15.42-5.47,20.55-5.32,3.85-11.38,6.68-17.94,8.04-2.09.43-4.22.71-6.33,1.06Z"/><path class="cls-6" d="M1136.77,927.8c-.07-.14-.11-.33-.23-.43-1.37-1.08-4.6-6.19-4.77-7.58,2.22.66,3.3.14,3.03-2.48-.46-4.5-.68-9.02-1.01-13.53.75-2.65.9-5.3-.06-7.94-1.7-1.8-.68-4.03-.95-6.05,2.3-2.67-.06-6.15,1.99-9.91,0,3.93-.02,6.89.02,9.85,0,.43-.19,1.67.84.52.29-.32.31-.89.68-2.04,1.66,10.66-1.1,20.58-.47,30.63,1.84-.95.09-2.99,2-4.28-.64,4.66,1.11,9.04-1.07,13.23Z"/><path class="cls-3" d="M606.84,607.87c.46,4.34-1.06,8.68-.01,13.03-4.17-7.5-6.53-15.6-7.94-24.01,2.28.82,1.42,5.06,5.32,4.54,1.45-.19,1.61-1.35,2.63-1.55v8Z"/><path class="cls-25" d="M234.91,334.9c6.65-1.61,13.31-1.59,19.96-.02-6.66,0-13.31.01-19.96.02Z"/><path class="cls-25" d="M700.79,685.86c5.02,0,10.03,0,15.05,0-5.02,1.6-10.03,1.57-15.05,0Z"/><path class="cls-6" d="M1131.77,919.79c-1.22.31-2.01,2.31-3.35,1.47-2.21-1.38-.33-3.61-.65-5.42,1.33,1.32,2.67,2.64,4,3.96Z"/><path class="cls-26" d="M1133.73,895.85c1.76,2.63,1.41,5.28.06,7.94-.02-2.65-.04-5.29-.06-7.94Z"/><path class="cls-22" d="M1006.74,255.87h2.08c1.63-.65,3.26-.58,4.9-.05,1.87-.88,3.86-.85,5.87-.85,23.33.02,46.68-.54,69.97.28,9.21.33,18.95-1.19,27.78,3.88,8.5,4.88,14.34,17,11.17,26.54-2.91,8.73-10.51,16.15-21.43,16.34-6.68.12-13.24-1.25-19.88-1.03-32.28,1.04-64.57,1.07-96.86.9-6.11-.03-11.94-.87-17.24-5-4.5-3.51-6.04-8.01-7.35-12.96-.72-2.65-.7-5.3-.01-7.95.87-10.66,12.14-21.22,25.08-20.08,5.31-.72,10.62-.66,15.93-.02Z"/><path class="cls-25" d="M1006.74,255.87c-5.31,0-10.62.01-15.93.02,5.31-1.51,10.62-1.49,15.93-.02Z"/><path class="cls-25" d="M965.73,275.97c0,2.65,0,5.3.01,7.95-1.48-2.65-1.47-5.3-.01-7.95Z"/><path class="cls-25" d="M1013.72,255.82c-1.63.02-3.27.03-4.9.04,1.62-1.37,3.25-1.34,4.9-.04Z"/><path class="cls-32" d="M315.86,853.22c0-6.83,2.87-9.76,9.51-9.68,4.06.04,9.44,6.42,9.45,11.2,0,4.66-4.97,10.09-9.23,9.7-5.82-.53-10.75-4.51-9.74-11.22Z"/><path class="cls-6" d="M378.89,853.48c-.06-5.04,3.66-9.3,8.28-9.5,5.31-.23,10.45,4.4,10.61,9.58.16,5-4.59,10.08-9.59,10.24-5.62.18-9.23-3.82-9.3-10.32Z"/><path class="cls-13" d="M851.08,865.78c6.29.03,9.82,2.31,12.03,7.67,2.02,4.9-.45,8.17-3.74,11.37-2.24,2.18-4,4.86-6.22,7.07-1.21,1.21-2.2,3.93-4.75,1.93-2.56-2-.61-3.74.41-5.57,1.85-3.32,3.51-6.74,5.44-10.01.89-1.51,1.88-2.84.4-4.43-1.54-1.65-3.37-1.1-5.04-.33-2.54,1.18-4.72,2.98-7.51,3.79-2.58.75-3.24,0-3.35-2.45-.25-5.63,4.34-9.07,12.32-9.03Z"/><path class="cls-10" d="M854.81,907.1c-.79,2.49-2.25,4.45-5.02,4.58-2.27.11-3.84-1.46-3.84-3.66,0-2.76,1.18-5.6,4.12-5.95,2.99-.36,3.67,2.69,4.74,5.03Z"/><path class="cls-6" d="M976.79,903.8c1,.67,2,1.33,3,2-.72,1.99-.54,4.27-1.98,6.02-.34-2.67-.68-5.35-1.02-8.02Z"/><path class="cls-6" d="M1125.72,922.82c3.29,2.45,9.2,2.57,8.04,9.01-2.68-3-5.36-6-8.04-9.01Z"/><path class="cls-6" d="M1139.01,931.12v-10.79q1.82,2.8,0,10.79Z"/><path class="cls-6" d="M1135.77,935.79c.43-2.65-1-5.54,1-7.99-.44,2.65,1,5.54-1,7.99Z"/><path class="cls-22" d="M661.77,553.59c.29-13.46-.84-26.47,1.15-39.33,1.23-7.95,4.7-15.18,9.64-21.53,8.85-11.37,21.25-16.85,35.03-17.48,13.82-.63,25.82,5.13,34.52,16.34,8.92,11.5,12.43,24.72,12.91,39.22.29,8.95.95,17.9.76,26.85-.28,13.08-1.11,26.14-3.02,39.08-2.36,16.02-20.13,32.82-36.23,35.16-17.44,2.54-32.25-2.5-43.81-15.5-5.85-6.59-8.65-15.14-9.85-23.99-1.77-13.07-.74-26.22-1.08-38.82Z"/><path class="cls-22" d="M919.63,575.85c14.95-18.68,27.88-37.55,43.14-55.79,0,18.19-.03,35.46.03,52.72.01,2.95-1.69,3.09-3.89,3.09-12.65-.04-25.3-.02-39.28-.02Z"/><path class="cls-2" d="M469.22,521.63c1.16,1.03.62,2.26.63,3.31.04,15.47-.05,30.93.1,46.4.03,3.44-.97,4.64-4.51,4.58-10.81-.2-21.62-.05-32.43-.1-1.26,0-2.87.59-3.66-.81-.99-1.75.77-2.61,1.63-3.75,10.8-14.38,22.31-28.22,32.44-43.11,1.62-2.37,3.83-4.34,5.81-6.53Z"/></svg>